<svg width="32" height="32" viewBox="0 0 32 32" fill="none" xmlns="http://www.w3.org/2000/svg">
<path fill-rule="evenodd" clip-rule="evenodd" d="M9.60111 0.00148639C10.2442 -0.0218729 10.843 0.23148 11.2751 0.663633L30.3746 19.7628L31.9678 29.3219C32.2273 30.8788 30.8788 32.2273 29.3219 31.9678L19.7625 30.3746L0.663014 11.2755C0.232781 10.8453 -0.0242779 10.2465 0.00181416 9.59729C0.198434 4.70506 3.73526 0.214554 9.60111 0.00148639ZM9.47865 2.77097C5.45064 3.02035 3.00886 6.00868 2.77232 9.48099L19.4856 26.1939C19.9251 24.4546 20.6757 22.9869 21.8312 21.8314C22.9867 20.676 24.4545 19.9254 26.1938 19.4858L9.47865 2.77097ZM27.9399 21.9456C26.0039 22.2491 24.686 22.8805 23.7831 23.7833C22.8803 24.6862 22.2489 26.004 21.9453 27.94L29.1388 29.1388L27.9399 21.9456Z" fill="#838383"/>
</svg>
