<svg width="24" height="32" viewBox="0 0 24 32" fill="none" xmlns="http://www.w3.org/2000/svg">
<path d="M22 6H2C0.895431 6 0 5.10457 0 4C0 2.89543 0.895431 2 2 2H5.77896C6.96617 2 8.24275 0.849165 9.34386 0.405295C9.93406 0.167379 10.7821 0 12 0C13.2179 0 14.0659 0.167379 14.6561 0.405295C15.7573 0.849165 17.0338 2 18.221 2H22C23.1046 2 24 2.89543 24 4C24 5.10457 23.1046 6 22 6Z" fill="#D7D7D7"/>
<path fill-rule="evenodd" clip-rule="evenodd" d="M0 27V13C0 10.2386 2.23858 8 5 8H19C21.7614 8 24 10.2386 24 13V27C24 29.7614 21.7614 32 19 32H5C2.23858 32 0 29.7614 0 27ZM4 13V27C4 27.5523 4.44772 28 5 28C5.55228 28 6 27.5523 6 27V13C6 12.4477 5.55228 12 5 12C4.44772 12 4 12.4477 4 13ZM11 27V13C11 12.4477 11.4477 12 12 12C12.5523 12 13 12.4477 13 13V27C13 27.5523 12.5523 28 12 28C11.4477 28 11 27.5523 11 27ZM18 13V27C18 27.5523 18.4477 28 19 28C19.5523 28 20 27.5523 20 27V13C20 12.4477 19.5523 12 19 12C18.4477 12 18 12.4477 18 13Z" fill="#D7D7D7"/>
</svg>
