<svg width="25" height="33" viewBox="0 0 25 33" fill="none" xmlns="http://www.w3.org/2000/svg">
<path fill-rule="evenodd" clip-rule="evenodd" d="M12.9215 27.4659L1.24524 7.73703C0.975077 7.28054 0.891629 6.73896 1.06962 6.23927C2.34321 2.66383 5.7899 0.124115 10.1525 0.860905C10.6755 0.949234 11.111 1.28269 11.3812 1.73914L23.0568 21.4668C21.1217 21.6421 19.114 22.3788 17.3673 23.4124C15.6196 24.4466 14.0065 25.853 12.9215 27.4659ZM24.152 23.431L23.5317 30.6367C23.414 32.004 21.9865 32.8488 20.7313 32.294L14.117 29.3705C14.9146 27.7973 16.4705 26.267 18.3858 25.1336C20.3003 24.0008 22.3895 23.3736 24.152 23.431Z" fill="#D7D7D7"/>
</svg>
