<svg id="_1" data-name="1" xmlns="http://www.w3.org/2000/svg" viewBox="0 0 277.08 195.56"><defs><style>.cls-1{fill:#004b96;}.cls-1,.cls-2{fill-rule:evenodd;}.cls-2{fill:#9c9d9d;}</style></defs><path class="cls-1" d="M174.38,476.22H159.6V411.69h26.56c7.63,0,13.79,2.25,18.09,6.17s6.86,9.8,6.86,16.64c0,7.25-2.72,12.84-7.16,16.7-4.8,4.17-11.59,6.29-19.13,6.29h-9.38v18.73Zm1.06-50v17h9.82a10.6,10.6,0,0,0,7.19-2.36,8.08,8.08,0,0,0,2.64-6.22,7.73,7.73,0,0,0-2.54-6.17c-1.74-1.47-4.33-2.23-7.55-2.23Zm131,50H291.62V411.64h15.84v64.58Zm26.4,0H318V411.69h14.45l27.68,36.37V411.69h15.66v64.53H362.52L333.86,438.6v37.62Zm83.83,0H401.84V426.46h-19V411.69h53.83v14.77h-19v49.76Z" transform="translate(-159.6 -323.77)"/><path class="cls-2" d="M335.69,396.12h15.85v-29l27.7-43.35h-18l-17.5,28.94-17.2-28.94H308l27.7,43.66v28.69ZM225.34,467.75a33.55,33.55,0,0,1,.11-47.6,33.7,33.7,0,0,1,16.44-8.72V323.77h49.73v14.11h-34V352.5h34v14.11h-34v15.13h34v14.11h-34V411.4a32.79,32.79,0,0,1,26.3,32.53,32.9,32.9,0,0,1-10,23.77,35.78,35.78,0,0,1-48.64.05Zm10.41-10.4a19,19,0,1,0-5.57-13.45,18.94,18.94,0,0,0,5.57,13.45Zm-76.15-61.5h15.85v-22l8.34-8.64,22.35,30.68h19.05l-30.69-41.5,29.35-30.58H204.7l-29.25,31.51V323.77H159.6Z" transform="translate(-159.6 -323.77)"/><path class="cls-2" d="M173.89,519.34a17.42,17.42,0,0,0,11.46-4.26V503.42H173.7v5.1h5.94v3.84a9.45,9.45,0,0,1-5.56,1.61c-4.76,0-8.13-3.61-8.13-8.51,0-4.64,3.41-8.44,7.71-8.44a9.9,9.9,0,0,1,7,2.72l3.72-4.48c-2.8-2.38-5.71-3.68-10.54-3.68a13.77,13.77,0,0,0-14.07,13.88c0,8,5.75,13.88,14.11,13.88Zm25.19-.46H205v-8.59h4.57l5.82,8.59h6.91l-6.56-9.59a8.33,8.33,0,0,0,5.75-8.32,8.49,8.49,0,0,0-2.3-6.21c-1.76-1.76-4.41-2.72-7.82-2.72H199.08v26.84Zm5.9-13.81v-7.7h5.87c2.87,0,4.64,1.3,4.64,3.83,0,2.34-1.65,3.87-4.53,3.87Zm42.91,14.27a13.88,13.88,0,0,0,14.3-13.88c0-7.71-5.94-13.88-14.23-13.88a13.88,13.88,0,0,0-14.3,13.88c0,7.7,6,13.88,14.23,13.88Zm.07-5.45a8.15,8.15,0,0,1-8.12-8.43c0-4.68,3.29-8.44,8-8.44a8.16,8.16,0,0,1,8.13,8.44c0,4.67-3.3,8.43-8.06,8.43Zm38.73,5.41c7.21,0,11.77-4,11.77-12.12V492h-5.9v15.37c0,4.26-2.19,6.44-5.79,6.44s-5.79-2.26-5.79-6.63V492h-5.91v15.33c0,7.9,4.41,11.93,11.62,11.93Zm25.84-.42h5.91v-8.06h4.48c6,0,10.85-3.22,10.85-9.43,0-5.56-3.87-9.35-10.27-9.35h-11v26.84Zm5.91-13.31v-8.2H323c2.95,0,4.79,1.42,4.79,4.06,0,2.38-1.72,4.14-4.68,4.14Z" transform="translate(-159.6 -323.77)"/></svg>