<svg width="146" height="19" viewBox="0 0 146 19" fill="none" xmlns="http://www.w3.org/2000/svg">
<path d="M5.4 8.92L3.58 11.12V15H0.54V1.04H3.58V7.68H3.7L5.68 4.98L8.82 1.04H12.26L7.56 6.78L12.68 15H9.1L5.4 8.92ZM14.4658 15V1.04H23.9658V3.74H17.5058V6.6H23.0458V9.28H17.5058V12.3H23.9658V15H14.4658ZM30.0342 15V9.54L25.2542 1.04H28.6542L31.6542 6.6H31.6942L34.5742 1.04H37.8742L33.0942 9.52V15H30.0342ZM39.6025 15V1.04H46.2025C46.8558 1.04 47.4425 1.15333 47.9625 1.38C48.4825 1.59333 48.9225 1.89333 49.2825 2.28C49.6558 2.66667 49.9425 3.14 50.1425 3.7C50.3425 4.24667 50.4425 4.84667 50.4425 5.5C50.4425 6.16667 50.3425 6.77333 50.1425 7.32C49.9425 7.86667 49.6558 8.33333 49.2825 8.72C48.9225 9.10667 48.4825 9.41333 47.9625 9.64C47.4425 9.85333 46.8558 9.96 46.2025 9.96H42.6425V15H39.6025ZM42.6425 7.32H45.8425C46.2958 7.32 46.6492 7.20667 46.9025 6.98C47.1692 6.74 47.3025 6.39333 47.3025 5.94V5.06C47.3025 4.60667 47.1692 4.26667 46.9025 4.04C46.6492 3.8 46.2958 3.68 45.8425 3.68H42.6425V7.32ZM58.3275 15.24C57.4075 15.24 56.5675 15.0867 55.8075 14.78C55.0475 14.4733 54.4008 14.02 53.8675 13.42C53.3342 12.8067 52.9208 12.0533 52.6275 11.16C52.3342 10.2533 52.1875 9.20667 52.1875 8.02C52.1875 6.83333 52.3342 5.79333 52.6275 4.9C52.9208 3.99333 53.3342 3.24 53.8675 2.64C54.4008 2.02667 55.0475 1.56667 55.8075 1.26C56.5675 0.953333 57.4075 0.799999 58.3275 0.799999C59.2475 0.799999 60.0875 0.953333 60.8475 1.26C61.6075 1.56667 62.2542 2.02667 62.7875 2.64C63.3208 3.24 63.7342 3.99333 64.0275 4.9C64.3208 5.79333 64.4675 6.83333 64.4675 8.02C64.4675 9.20667 64.3208 10.2533 64.0275 11.16C63.7342 12.0533 63.3208 12.8067 62.7875 13.42C62.2542 14.02 61.6075 14.4733 60.8475 14.78C60.0875 15.0867 59.2475 15.24 58.3275 15.24ZM58.3275 12.54C59.2475 12.54 59.9608 12.24 60.4675 11.64C60.9875 11.04 61.2475 10.18 61.2475 9.06V6.98C61.2475 5.86 60.9875 5 60.4675 4.4C59.9608 3.8 59.2475 3.5 58.3275 3.5C57.4075 3.5 56.6875 3.8 56.1675 4.4C55.6608 5 55.4075 5.86 55.4075 6.98V9.06C55.4075 10.18 55.6608 11.04 56.1675 11.64C56.6875 12.24 57.4075 12.54 58.3275 12.54ZM66.4648 15V12.58H68.2648V3.46H66.4648V1.04H73.1048V3.46H71.3048V12.58H73.1048V15H66.4648ZM79.8977 8.4L78.5577 5.6H78.4977V15H75.6377V1.04H78.9577L82.7777 7.64L84.1177 10.44H84.1777V1.04H87.0377V15H83.7177L79.8977 8.4ZM95.9303 3.74V15H92.8903V3.74H89.1103V1.04H99.7103V3.74H95.9303ZM105.037 18.02L110.997 0.2H113.437L107.477 18.02H105.037ZM110.427 18.02L116.387 0.2H118.827L112.867 18.02H110.427ZM125.293 15V12.58H127.093V3.46H125.293V1.04H131.933V3.46H130.133V12.58H131.933V15H125.293ZM134.466 1.04H139.726C140.646 1.04 141.486 1.18667 142.246 1.48C143.006 1.77333 143.652 2.21333 144.186 2.8C144.719 3.37333 145.132 4.1 145.426 4.98C145.719 5.84667 145.866 6.86 145.866 8.02C145.866 9.18 145.719 10.2 145.426 11.08C145.132 11.9467 144.719 12.6733 144.186 13.26C143.652 13.8333 143.006 14.2667 142.246 14.56C141.486 14.8533 140.646 15 139.726 15H134.466V1.04ZM139.726 12.3C140.632 12.3 141.346 12.0467 141.866 11.54C142.386 11.0333 142.646 10.22 142.646 9.1V6.94C142.646 5.82 142.386 5.00667 141.866 4.5C141.346 3.99333 140.632 3.74 139.726 3.74H137.506V12.3H139.726Z" fill="#ffffff"/>
</svg>
