<svg width="32" height="32" viewBox="0 0 32 32" fill="none" xmlns="http://www.w3.org/2000/svg">
<rect width="32" height="32" rx="8" fill="black"/>
<path fill-rule="evenodd" clip-rule="evenodd" d="M25 12.4791C25 15.5051 22.5446 17.9582 19.5156 17.9582C18.9359 17.9582 18.3772 17.8683 17.8527 17.7018C17.6392 17.634 17.4027 17.6807 17.2444 17.8389L16.3054 18.777C16.1999 18.8824 16.0568 18.9416 15.9076 18.9416H15.0156C14.705 18.9416 14.4531 19.1932 14.4531 19.5035V20.0655C14.4531 20.3759 14.2013 20.6275 13.8906 20.6275H13.3281C13.0175 20.6275 12.7656 20.8791 12.7656 21.1894V21.7514C12.7656 22.0617 12.5138 22.3133 12.2031 22.3133H11.6406C11.33 22.3133 11.0781 22.5649 11.0781 22.8753V23.7695C11.0781 23.9167 11.0203 24.0581 10.9171 24.1631L10.2605 24.8316C10.1539 24.9402 10.0078 25.0009 9.85562 25L7.55908 24.986C7.24976 24.9841 7 24.7331 7 24.4241V22.1246C7 21.9756 7.05926 21.8327 7.16475 21.7273L14.1506 14.7482C14.309 14.5899 14.3557 14.3537 14.2879 14.1404C14.1212 13.6164 14.0312 13.0582 14.0312 12.4791C14.0312 9.45307 16.4867 7 19.5156 7C22.5446 7 25 9.45307 25 12.4791ZM22.1158 13.1972C22.3858 13.467 22.8409 13.3917 22.9325 13.0213C22.997 12.7606 23.0312 12.488 23.0312 12.2074C23.0312 10.3401 21.5161 8.82636 19.647 8.82636C19.3661 8.82636 19.0932 8.86054 18.8322 8.92498C18.4615 9.01651 18.3862 9.47118 18.6562 9.74095L22.1158 13.1972Z" fill="white"/>
</svg>
