<svg width="24" height="32" viewBox="0 0 24 32" fill="none" xmlns="http://www.w3.org/2000/svg">
<path fill-rule="evenodd" clip-rule="evenodd" d="M0 27V5C0 2.23859 2.23858 0 5 0H19C21.7614 0 24 2.23859 24 5V27C24 29.7614 21.7614 32 19 32H5C2.23858 32 0 29.7614 0 27ZM5 11H19C20.1046 11 21 10.1046 21 9C21 7.89545 20.1046 7 19 7H5C3.89543 7 3 7.89545 3 9C3 10.1046 3.89543 11 5 11ZM19 18H5C3.89543 18 3 17.1046 3 16C3 14.8954 3.89543 14 5 14H19C20.1046 14 21 14.8954 21 16C21 17.1046 20.1046 18 19 18ZM5 25H19C20.1046 25 21 24.1046 21 23C21 21.8954 20.1046 21 19 21H5C3.89543 21 3 21.8954 3 23C3 24.1046 3.89543 25 5 25Z" fill="#E0E0E0"/>
</svg>
