<svg width="13" height="13" viewBox="0 0 13 13" fill="none" xmlns="http://www.w3.org/2000/svg">
<path fill-rule="evenodd" clip-rule="evenodd" d="M5.04217 2.0461C3.38749 2.0461 2.0461 3.38749 2.0461 5.04217C2.0461 6.69686 3.38749 8.03825 5.04217 8.03825C6.69686 8.03825 8.03825 6.69686 8.03825 5.04217C8.03825 3.38749 6.69686 2.0461 5.04217 2.0461ZM0 5.04217C0 2.25746 2.25746 0 5.04217 0C7.82689 0 10.0843 2.25746 10.0843 5.04217C10.0843 6.06451 9.78009 7.01578 9.25718 7.81037L13 11.5532L11.5532 13L7.81037 9.25718C7.01578 9.78009 6.06451 10.0843 5.04217 10.0843C2.25746 10.0843 0 7.82689 0 5.04217Z" fill="black"/>
</svg>
