<svg width="38" height="32" viewBox="0 0 38 32" fill="none" xmlns="http://www.w3.org/2000/svg">
<path d="M19 0C11 0 4.34187 3.62268 4.01553 13.9454C3.99815 14.4953 3.54217 14.941 3.02263 15.1276C1.53647 15.6614 -7.32082e-05 17.2671 2.61607e-09 18.9262V25.899C-4.33985e-05 27.9313 2 29.8833 3.99999 29.8833H6.00001C6.5523 29.8833 7.00001 29.4373 7.00001 28.8872L6.99994 15.9377C6.99994 3.98444 14 2.98833 19 2.98833C24 2.98833 30.9999 3.98444 30.9999 15.9377V27.1359C30.9999 27.5828 30.7035 27.9754 30.2737 28.0977L24.0891 29.8579C24.0298 29.8748 23.9724 29.8965 23.9204 29.9297C23.694 30.0744 23.0882 30.557 23.5 31.3774C23.9035 32.1813 24.6326 32.0121 24.899 31.9168C24.9675 31.8923 25.0356 31.8666 25.1062 31.849L32.6429 29.9722C32.8801 29.9131 33.1235 29.8833 33.3679 29.8833H34C36 29.8833 38 27.9312 38 25.8989V18.9262C38 17.2672 36.4635 15.6615 34.9774 15.1276C34.4578 14.941 34.0018 14.4953 33.9845 13.9454C33.6581 3.62268 27 0 19 0Z" fill="white"/>
</svg>
