<svg width="32" height="32" viewBox="0 0 32 32" fill="none" xmlns="http://www.w3.org/2000/svg">
<rect width="32" height="32" rx="8" fill="black"/>
<path d="M21.0717 12.0625C21.0717 14.8584 18.801 17.125 16 17.125C13.199 17.125 10.9283 14.8584 10.9283 12.0625C10.9283 9.26656 13.199 7 16 7C18.801 7 21.0717 9.26656 21.0717 12.0625Z" fill="white"/>
<path fill-rule="evenodd" clip-rule="evenodd" d="M10.8402 18.2046C10.6272 18.0262 10.3161 18.0077 10.1058 18.1893C8.3263 19.7251 7.155 21.9441 7.00102 24.4378C6.98187 24.7478 7.236 25 7.54723 25H24.4528C24.764 25 25.0181 24.7478 24.999 24.4378C24.845 21.9441 23.6737 19.7251 21.8942 18.1893C21.6839 18.0077 21.3728 18.0262 21.1598 18.2046C19.7643 19.3739 17.9645 20.0781 16 20.0781C14.0355 20.0781 12.2357 19.3739 10.8402 18.2046Z" fill="white"/>
</svg>
