<svg xmlns="http://www.w3.org/2000/svg" xmlns:xlink="http://www.w3.org/1999/xlink" contentStyleType="text/css" data-diagram-type="ACTIVITY" height="655px" preserveAspectRatio="none" style="width:719px;height:655px;background:#FFFFFF;" version="1.1" viewBox="0 0 719 655" width="719px" zoomAndPan="magnify"><defs/><g><g class="legend" data-source-line="5"><rect fill="none" height="98.0586" rx="7.5" ry="7.5" style="stroke:#000000;stroke-width:1;" width="160.8965" x="10" y="10"/><text fill="#000000" font-family="Verdana" font-size="14" font-weight="bold" lengthAdjust="spacing" textLength="150.8965" x="15" y="29.0752">2. Activity Diagram</text><line style="stroke:#000000;stroke-width:1;" x1="10" x2="170.8965" y1="37.0146" y2="37.0146"/><text fill="#000000" font-family="Verdana" font-size="14" font-weight="bold" lengthAdjust="spacing" textLength="122.541" x="15" y="56.0898">&#1042;&#1093;&#1086;&#1076; &#1074; &#1072;&#1082;&#1082;&#1072;&#1091;&#1085;&#1090;</text><line style="stroke:#000000;stroke-width:1;" x1="10" x2="170.8965" y1="64.0293" y2="64.0293"/><text fill="#000000" font-family="Verdana" font-size="14" lengthAdjust="spacing" textLength="86.5498" x="15" y="83.1045">Version: 0.2</text><text fill="#000000" font-family="Verdana" font-size="14" lengthAdjust="spacing" textLength="110.4482" x="15" y="100.1191">Date: 03/12/25</text></g><rect fill="#FFFFFF" height="21.876" style="stroke:#FFFFFF;stroke-width:1;" width="696.8516" x="10" y="116.3379"/><ellipse cx="148.5869" cy="153.2139" fill="#FFFFFF" rx="10" ry="10" style="stroke:#000000;stroke-width:1;"/><rect fill="#FFFFFF" height="34.584" rx="12.5" ry="12.5" style="stroke:#000000;stroke-width:1;" width="207.1719" x="45.001" y="183.2139"/><text fill="#000000" font-family="Verdana" font-size="12" lengthAdjust="spacing" textLength="187.1719" x="55.001" y="205.2783">&#1048;&#1085;&#1080;&#1094;&#1080;&#1080;&#1088;&#1086;&#1074;&#1072;&#1090;&#1100; &#1074;&#1093;&#1086;&#1076; &#1074; &#1089;&#1080;&#1089;&#1090;&#1077;&#1084;&#1091;</text><rect fill="#000000" height="6" rx="2.5" ry="2.5" style="stroke:#000000;stroke-width:1;" width="265.1738" x="16" y="350.9658"/><rect fill="#FFFFFF" height="34.584" rx="12.5" ry="12.5" style="stroke:#000000;stroke-width:1;" width="102.4883" x="28" y="376.9658"/><text fill="#000000" font-family="Verdana" font-size="12" lengthAdjust="spacing" textLength="82.4883" x="38" y="399.0303">&#1042;&#1074;&#1077;&#1089;&#1090;&#1080; &#1083;&#1086;&#1075;&#1080;&#1085;</text><rect fill="#FFFFFF" height="34.584" rx="12.5" ry="12.5" style="stroke:#000000;stroke-width:1;" width="110.6855" x="158.4883" y="376.9658"/><text fill="#000000" font-family="Verdana" font-size="12" lengthAdjust="spacing" textLength="90.6855" x="168.4883" y="399.0303">&#1042;&#1074;&#1077;&#1089;&#1090;&#1080; &#1087;&#1072;&#1088;&#1086;&#1083;&#1100;</text><rect fill="#000000" height="6" rx="2.5" ry="2.5" style="stroke:#000000;stroke-width:1;" width="265.1738" x="16" y="431.5498"/><rect fill="#FFFFFF" height="34.584" rx="12.5" ry="12.5" style="stroke:#000000;stroke-width:1;" width="132.6172" x="82.2783" y="457.5498"/><text fill="#000000" font-family="Verdana" font-size="12" lengthAdjust="spacing" textLength="112.6172" x="92.2783" y="479.6143">&#1055;&#1086;&#1076;&#1090;&#1074;&#1077;&#1088;&#1076;&#1080;&#1090;&#1100; &#1074;&#1093;&#1086;&#1076;</text><line style="stroke:#000000;stroke-width:1;" x1="10" x2="10" y1="116.3379" y2="648.8237"/><rect fill="#FFFFFF" height="49.168" rx="12.5" ry="12.5" style="stroke:#000000;stroke-width:1;" width="149.6152" x="329.6992" y="281.7979"/><text fill="#000000" font-family="Verdana" font-size="12" lengthAdjust="spacing" textLength="119.209" x="339.6992" y="303.8623">&#1055;&#1088;&#1077;&#1076;&#1086;c&#1090;&#1072;&#1074;&#1080;&#1090;&#1100; &#1087;&#1086;&#1083;&#1103;</text><text fill="#000000" font-family="Verdana" font-size="12" lengthAdjust="spacing" textLength="129.6152" x="339.6992" y="318.4463">&#1076;&#1083;&#1103; &#1083;&#1086;&#1075;&#1080;&#1085;&#1072; &#1080; &#1087;&#1072;&#1088;&#1086;&#1083;&#1103;</text><polygon fill="#FFFFFF" points="404.5068,237.7979,416.5068,249.7979,404.5068,261.7979,392.5068,249.7979,404.5068,237.7979" style="stroke:#000000;stroke-width:1;"/><polygon fill="#FFFFFF" points="339.0037,512.1338,470.01,512.1338,482.01,532.1868,470.01,552.2397,339.0037,552.2397,327.0037,532.1868,339.0037,512.1338" style="stroke:#000000;stroke-width:1;"/><text fill="#000000" font-family="Verdana" font-size="11" lengthAdjust="spacing" textLength="108.9526" x="339.0037" y="523.1929">&#1051;&#1086;&#1075;&#1080;&#1085; &#1089;&#1091;&#1097;&#1077;&#1089;&#1090;&#1074;&#1091;&#1077;&#1090;?</text><text fill="#000000" font-family="Verdana" font-size="11" font-weight="bold" lengthAdjust="spacing" textLength="18.9707" x="339.0037" y="536.5615">&amp;&amp;</text><text fill="#000000" font-family="Verdana" font-size="11" lengthAdjust="spacing" textLength="131.0063" x="339.0037" y="549.9302">&#1055;&#1072;&#1088;&#1086;&#1083;&#1100; &#1089;&#1086;&#1086;&#1090;&#1074;&#1077;&#1090;&#1089;&#1090;&#1074;&#1091;&#1077;&#1090;?</text><text fill="#000000" font-family="Verdana" font-size="11" lengthAdjust="spacing" textLength="20.2759" x="482.01" y="529.8772">&#1053;&#1077;&#1090;</text><rect fill="#FFFFFF" height="49.168" rx="12.5" ry="12.5" style="stroke:#000000;stroke-width:1;" width="172.8477" x="527.8398" y="370.4348"/><text fill="#000000" font-family="Verdana" font-size="12" lengthAdjust="spacing" textLength="148.6289" x="537.8398" y="392.4993">&#1055;&#1086;&#1082;&#1072;&#1079;&#1072;&#1090;&#1100; &#1089;&#1086;&#1086;&#1073;&#1097;&#1077;&#1085;&#1080;&#1077; &#1086;&#1073;</text><text fill="#000000" font-family="Verdana" font-size="12" lengthAdjust="spacing" textLength="143.9414" x="537.8398" y="407.0833">&#1086;&#1096;&#1080;&#1073;&#1082;&#1077; &#1083;&#1086;&#1075;&#1080;&#1085;&#1072;/&#1087;&#1072;&#1088;&#1086;&#1083;&#1103;</text><rect fill="#FFFFFF" height="34.584" rx="12.5" ry="12.5" style="stroke:#000000;stroke-width:1;" width="226.666" x="291.1738" y="572.2397"/><text fill="#000000" font-family="Verdana" font-size="12" lengthAdjust="spacing" textLength="206.666" x="301.1738" y="594.3042">&#1056;&#1077;&#1076;&#1080;&#1088;&#1077;&#1082;&#1090; &#1085;&#1072; &#1089;&#1090;&#1088;&#1072;&#1085;&#1080;&#1094;&#1091; "&#1050;&#1083;&#1080;&#1077;&#1085;&#1090;&#1099;"</text><ellipse cx="404.5068" cy="637.8237" fill="none" rx="11" ry="11" style="stroke:#000000;stroke-width:1;"/><ellipse cx="404.5068" cy="637.8237" fill="#FFFFFF" rx="6" ry="6" style="stroke:#000000;stroke-width:1;"/><line style="stroke:#000000;stroke-width:1;" x1="285.1738" x2="285.1738" y1="116.3379" y2="648.8237"/><line style="stroke:#000000;stroke-width:1;" x1="704.6875" x2="704.6875" y1="116.3379" y2="648.8237"/><line style="stroke:#000000;stroke-width:1;" x1="148.5869" x2="148.5869" y1="163.2139" y2="183.2139"/><polygon fill="#000000" points="144.5869,173.2139,148.5869,183.2139,152.5869,173.2139,148.5869,177.2139" style="stroke:#000000;stroke-width:1;"/><line style="stroke:#000000;stroke-width:1;" x1="79.2441" x2="79.2441" y1="356.9658" y2="376.9658"/><polygon fill="#000000" points="75.2441,366.9658,79.2441,376.9658,83.2441,366.9658,79.2441,370.9658" style="stroke:#000000;stroke-width:1;"/><line style="stroke:#000000;stroke-width:1;" x1="213.8311" x2="213.8311" y1="356.9658" y2="376.9658"/><polygon fill="#000000" points="209.8311,366.9658,213.8311,376.9658,217.8311,366.9658,213.8311,370.9658" style="stroke:#000000;stroke-width:1;"/><line style="stroke:#000000;stroke-width:1;" x1="79.2441" x2="79.2441" y1="411.5498" y2="431.5498"/><polygon fill="#000000" points="75.2441,421.5498,79.2441,431.5498,83.2441,421.5498,79.2441,425.5498" style="stroke:#000000;stroke-width:1;"/><line style="stroke:#000000;stroke-width:1;" x1="213.8311" x2="213.8311" y1="411.5498" y2="431.5498"/><polygon fill="#000000" points="209.8311,421.5498,213.8311,431.5498,217.8311,421.5498,213.8311,425.5498" style="stroke:#000000;stroke-width:1;"/><line style="stroke:#000000;stroke-width:1;" x1="148.5869" x2="148.5869" y1="437.5498" y2="457.5498"/><polygon fill="#000000" points="144.5869,447.5498,148.5869,457.5498,152.5869,447.5498,148.5869,451.5498" style="stroke:#000000;stroke-width:1;"/><line style="stroke:#000000;stroke-width:1;" x1="404.5068" x2="404.5068" y1="261.7979" y2="281.7979"/><polygon fill="#000000" points="400.5068,271.7979,404.5068,281.7979,408.5068,271.7979,404.5068,275.7979" style="stroke:#000000;stroke-width:1;"/><line style="stroke:#000000;stroke-width:1;" x1="482.01" x2="614.2637" y1="532.1868" y2="532.1868"/><line style="stroke:#000000;stroke-width:1;" x1="614.2637" x2="614.2637" y1="419.6028" y2="532.1868"/><polygon fill="#000000" points="610.2637,429.6028,614.2637,419.6028,618.2637,429.6028,614.2637,425.6028" style="stroke:#000000;stroke-width:1;"/><line style="stroke:#000000;stroke-width:1;" x1="614.2637" x2="614.2637" y1="249.7979" y2="370.4348"/><line style="stroke:#000000;stroke-width:1;" x1="614.2637" x2="416.5068" y1="249.7979" y2="249.7979"/><polygon fill="#000000" points="426.5068,245.7979,416.5068,249.7979,426.5068,253.7979,422.5068,249.7979" style="stroke:#000000;stroke-width:1;"/><line style="stroke:#000000;stroke-width:1;" x1="404.5068" x2="404.5068" y1="552.2397" y2="572.2397"/><polygon fill="#000000" points="400.5068,562.2397,404.5068,572.2397,408.5068,562.2397,404.5068,566.2397" style="stroke:#000000;stroke-width:1;"/><line style="stroke:#000000;stroke-width:1;" x1="404.5068" x2="404.5068" y1="606.8237" y2="626.8237"/><polygon fill="#000000" points="400.5068,616.8237,404.5068,626.8237,408.5068,616.8237,404.5068,620.8237" style="stroke:#000000;stroke-width:1;"/><line style="stroke:#000000;stroke-width:1;" x1="404.5068" x2="404.5068" y1="330.9658" y2="335.9658"/><line style="stroke:#000000;stroke-width:1;" x1="404.5068" x2="148.5869" y1="335.9658" y2="335.9658"/><line style="stroke:#000000;stroke-width:1;" x1="148.5869" x2="148.5869" y1="335.9658" y2="350.9658"/><polygon fill="#000000" points="144.5869,340.9658,148.5869,350.9658,152.5869,340.9658,148.5869,344.9658" style="stroke:#000000;stroke-width:1;"/><line style="stroke:#000000;stroke-width:1;" x1="148.5869" x2="148.5869" y1="492.1338" y2="497.1338"/><line style="stroke:#000000;stroke-width:1;" x1="148.5869" x2="404.5068" y1="497.1338" y2="497.1338"/><line style="stroke:#000000;stroke-width:1;" x1="404.5068" x2="404.5068" y1="497.1338" y2="512.1338"/><polygon fill="#000000" points="400.5068,502.1338,404.5068,512.1338,408.5068,502.1338,404.5068,506.1338" style="stroke:#000000;stroke-width:1;"/><line style="stroke:#000000;stroke-width:1;" x1="148.5869" x2="148.5869" y1="217.7979" y2="222.7979"/><line style="stroke:#000000;stroke-width:1;" x1="148.5869" x2="404.5068" y1="222.7979" y2="222.7979"/><line style="stroke:#000000;stroke-width:1;" x1="404.5068" x2="404.5068" y1="222.7979" y2="237.7979"/><polygon fill="#000000" points="400.5068,227.7979,404.5068,237.7979,408.5068,227.7979,404.5068,231.7979" style="stroke:#000000;stroke-width:1;"/><text fill="#000000" font-family="Verdana" font-size="18" lengthAdjust="spacing" textLength="99.123" x="98.0254" y="134.4346">&#1057;&#1086;&#1090;&#1088;&#1091;&#1076;&#1085;&#1080;&#1082;</text><text fill="#000000" font-family="Verdana" font-size="18" lengthAdjust="spacing" textLength="76.7021" x="456.5796" y="134.4346">&#1057;&#1080;&#1089;&#1090;&#1077;&#1084;&#1072;</text><!--SRC=[TLB1Jjj04BtlLmmS41nAIgfU2AAgn3VqrCicBC72SI9xMuIKGt14LLIaIfmgK1Nu0vDYOGNY_iBC7_NjEZHrrNeldfctxysRsPL1hBizJQ4-wN-mbFICrP5MA_RGz0mDGXr4IeMcQw9zilq1XUR0AiAtqzvjRjBRZWq-1lQ4zWBTZNNFbrxWUyRmfPnnoVV4K-ACPpYPZ7akQHtwpiH9q8-swULcqoVsj3M8NZMscetcQ-NqgpQK6l8jbvBA24JtFEU2PqELM1rRjStVN48-8Ld82CfJwALo0Vrb8tAAugcadFEJZ5iLu-yCPqCLcu7HZcu2aXmgPGV536n5nVOJN8_obTv7ABeVVaJc1sJdd14N3f7v1b1i_QVdWtvy18rBqEPUlVY3fkNBfBjk1N-1bjmNBJ-Q1TF4EGJ4GKVGAMhM_sMqhJj7nphUf-eojiCFYubXIYNEdPm3x3hEoONESYcV4Ty1djUCD-gkgodIyM4G6bhdwsSWg6NiQ7qdKumab_GDYF5WrjPs6krTQ4oM7XUjB8objLiR52JW_kw23OKPtFXz5NvlCqd9ByHTGIQh7eUCQPMlq7ZXdA7oPHMpIV2-Vm40]--></g></svg>