<svg xmlns="http://www.w3.org/2000/svg" xmlns:xlink="http://www.w3.org/1999/xlink" contentStyleType="text/css" data-diagram-type="ACTIVITY" height="1362px" preserveAspectRatio="none" style="width:662px;height:1362px;background:#FFFFFF;" version="1.1" viewBox="0 0 662 1362" width="662px" zoomAndPan="magnify"><defs/><g><g class="legend" data-source-line="5"><rect fill="none" height="98.0586" rx="7.5" ry="7.5" style="stroke:#000000;stroke-width:1;" width="269.1709" x="10" y="10"/><text fill="#000000" font-family="Verdana" font-size="14" font-weight="bold" lengthAdjust="spacing" textLength="150.8965" x="15" y="29.0752">2. Activity Diagram</text><line style="stroke:#000000;stroke-width:1;" x1="10" x2="279.1709" y1="37.0146" y2="37.0146"/><text fill="#000000" font-family="Verdana" font-size="14" font-weight="bold" lengthAdjust="spacing" textLength="259.1709" x="15" y="56.0898">&#1059;&#1076;&#1072;&#1083;&#1077;&#1085;&#1080;&#1077; &#1082;&#1086;&#1085;&#1092;&#1080;&#1075;&#1091;&#1088;&#1072;&#1094;&#1080;&#1080; &#1086;&#1090;&#1095;&#1077;&#1090;&#1072;</text><line style="stroke:#000000;stroke-width:1;" x1="10" x2="279.1709" y1="64.0293" y2="64.0293"/><text fill="#000000" font-family="Verdana" font-size="14" lengthAdjust="spacing" textLength="86.5498" x="15" y="83.1045">Version: 0.2</text><text fill="#000000" font-family="Verdana" font-size="14" lengthAdjust="spacing" textLength="110.4482" x="15" y="100.1191">Date: 16/09/25</text></g><rect fill="#FFFFFF" height="21.876" style="stroke:#FFFFFF;stroke-width:1;" width="639.5933" x="10" y="116.3379"/><ellipse cx="142.3643" cy="153.2139" fill="#FFFFFF" rx="10" ry="10" style="stroke:#000000;stroke-width:1;"/><rect fill="#FFFFFF" height="34.584" rx="12.5" ry="12.5" style="stroke:#000000;stroke-width:1;" width="177.541" x="53.5938" y="183.2139"/><text fill="#000000" font-family="Verdana" font-size="12" lengthAdjust="spacing" textLength="157.541" x="63.5938" y="205.2783">&#1042;&#1099;&#1073;&#1080;&#1088;&#1072;&#1077;&#1090; &#1082;&#1086;&#1085;&#1092;&#1080;&#1075;&#1091;&#1088;&#1072;&#1094;&#1080;&#1102;</text><rect fill="#FFFFFF" height="34.584" rx="12.5" ry="12.5" style="stroke:#000000;stroke-width:1;" width="252.7285" x="16" y="237.7979"/><text fill="#000000" font-family="Verdana" font-size="12" lengthAdjust="spacing" textLength="232.7285" x="26" y="259.8623">&#1048;&#1085;&#1080;&#1094;&#1080;&#1080;&#1088;&#1091;&#1077;&#1090; &#1091;&#1076;&#1072;&#1083;&#1077;&#1085;&#1080;&#1077; &#1082;&#1086;&#1085;&#1092;&#1080;&#1075;&#1091;&#1088;&#1072;&#1094;&#1080;&#1080;</text><rect fill="#FFFFFF" height="34.584" rx="12.5" ry="12.5" style="stroke:#000000;stroke-width:1;" width="129.834" x="77.4473" y="395.6501"/><text fill="#000000" font-family="Verdana" font-size="12" lengthAdjust="spacing" textLength="109.834" x="87.4473" y="417.7146">&#1054;&#1090;&#1084;&#1077;&#1085;&#1072; &#1086;&#1087;&#1077;&#1088;&#1072;&#1094;&#1080;&#1080;</text><ellipse cx="142.3643" cy="470.5261" fill="none" rx="11" ry="11" style="stroke:#000000;stroke-width:1;"/><ellipse cx="142.3643" cy="470.5261" fill="#FFFFFF" rx="6" ry="6" style="stroke:#000000;stroke-width:1;"/><polygon fill="#FFFFFF" points="72.7549,346.9658,211.9736,346.9658,223.9736,358.9658,211.9736,370.9658,72.7549,370.9658,60.7549,358.9658,72.7549,346.9658" style="stroke:#000000;stroke-width:1;"/><text fill="#000000" font-family="Verdana" font-size="11" lengthAdjust="spacing" textLength="20.2759" x="146.3643" y="382.0249">&#1053;&#1077;&#1090;</text><text fill="#000000" font-family="Verdana" font-size="11" lengthAdjust="spacing" textLength="139.2188" x="72.7549" y="363.3406">&#1055;&#1086;&#1076;&#1090;&#1074;&#1077;&#1088;&#1078;&#1076;&#1072;&#1077;&#1090; &#1091;&#1076;&#1072;&#1083;&#1077;&#1085;&#1080;&#1077;</text><text fill="#000000" font-family="Verdana" font-size="11" lengthAdjust="spacing" textLength="14.8081" x="223.9736" y="356.6563">&#1044;&#1072;</text><rect fill="#FFFFFF" height="34.584" rx="12.5" ry="12.5" style="stroke:#000000;stroke-width:1;" width="129.834" x="77.4473" y="996.0515"/><text fill="#000000" font-family="Verdana" font-size="12" lengthAdjust="spacing" textLength="109.834" x="87.4473" y="1018.116">&#1054;&#1090;&#1084;&#1077;&#1085;&#1072; &#1086;&#1087;&#1077;&#1088;&#1072;&#1094;&#1080;&#1080;</text><ellipse cx="142.3643" cy="1072.7432" fill="none" rx="11" ry="11" style="stroke:#000000;stroke-width:1;"/><ellipse cx="142.3643" cy="1072.7432" fill="#FFFFFF" rx="6" ry="6" style="stroke:#000000;stroke-width:1;"/><polygon fill="#FFFFFF" points="70.7917,947.3672,213.9368,947.3672,225.9368,959.3672,213.9368,971.3672,70.7917,971.3672,58.7917,959.3672,70.7917,947.3672" style="stroke:#000000;stroke-width:1;"/><text fill="#000000" font-family="Verdana" font-size="11" lengthAdjust="spacing" textLength="20.2759" x="146.3643" y="982.4263">&#1053;&#1077;&#1090;</text><text fill="#000000" font-family="Verdana" font-size="11" lengthAdjust="spacing" textLength="143.145" x="70.7917" y="963.7419">&#1055;&#1086;&#1076;&#1090;&#1074;&#1077;&#1088;&#1078;&#1076;&#1072;&#1077;&#1090; &#1086;&#1089;&#1090;&#1072;&#1085;&#1086;&#1074;&#1082;&#1091;</text><text fill="#000000" font-family="Verdana" font-size="11" lengthAdjust="spacing" textLength="14.8081" x="225.9368" y="957.0576">&#1044;&#1072;</text><line style="stroke:#000000;stroke-width:1;" x1="10" x2="10" y1="116.3379" y2="1355.4951"/><rect fill="#FFFFFF" height="34.584" rx="12.5" ry="12.5" style="stroke:#000000;stroke-width:1;" width="260.4336" x="306.2676" y="292.3818"/><text fill="#000000" font-family="Verdana" font-size="12" lengthAdjust="spacing" textLength="240.4336" x="316.2676" y="314.4463">&#1057;&#1087;&#1088;&#1072;&#1096;&#1080;&#1074;&#1072;&#1077;&#1090; &#1087;&#1086;&#1076;&#1090;&#1074;&#1077;&#1088;&#1078;&#1076;&#1077;&#1085;&#1080;&#1077; &#1091;&#1076;&#1072;&#1083;&#1077;&#1085;&#1080;&#1103;</text><rect fill="#FFFFFF" height="34.584" rx="12.5" ry="12.5" style="stroke:#000000;stroke-width:1;" width="236.9141" x="318.0273" y="574.9478"/><text fill="#000000" font-family="Verdana" font-size="12" lengthAdjust="spacing" textLength="216.9141" x="328.0273" y="597.0122">&#1055;&#1086;&#1082;&#1072;&#1079;&#1099;&#1074;&#1072;&#1077;&#1090; &#1089;&#1086;&#1086;&#1073;&#1097;&#1077;&#1085;&#1080;&#1077; &#1086;&#1073; &#1086;&#1096;&#1080;&#1073;&#1082;&#1077;</text><rect fill="#FFFFFF" height="34.584" rx="12.5" ry="12.5" style="stroke:#000000;stroke-width:1;" width="146.1172" x="363.4258" y="629.5317"/><text fill="#000000" font-family="Verdana" font-size="12" lengthAdjust="spacing" textLength="126.1172" x="373.4258" y="651.5962">&#1044;&#1077;&#1083;&#1072;&#1077;&#1090; &#1079;&#1072;&#1087;&#1080;&#1089;&#1100; &#1074; &#1083;&#1086;&#1075;</text><ellipse cx="436.4844" cy="695.1157" fill="none" rx="11" ry="11" style="stroke:#000000;stroke-width:1;"/><ellipse cx="436.4844" cy="695.1157" fill="#FFFFFF" rx="6" ry="6" style="stroke:#000000;stroke-width:1;"/><polygon fill="#FFFFFF" points="358.9392,523.5261,514.0295,523.5261,526.0295,536.8948,514.0295,550.2634,358.9392,550.2634,346.9392,536.8948,358.9392,523.5261" style="stroke:#000000;stroke-width:1;"/><text fill="#000000" font-family="Verdana" font-size="11" lengthAdjust="spacing" textLength="83.7837" x="440.4844" y="561.3225">&#1053;&#1077; &#1089;&#1091;&#1097;&#1077;&#1089;&#1090;&#1074;&#1091;&#1077;&#1090;</text><text fill="#000000" font-family="Verdana" font-size="11" lengthAdjust="spacing" textLength="151.2231" x="358.9392" y="534.5852">&#1055;&#1088;&#1086;&#1074;&#1077;&#1088;&#1103;&#1077;&#1090; &#1089;&#1091;&#1097;&#1077;&#1089;&#1090;&#1074;&#1086;&#1074;&#1072;&#1085;&#1080;&#1077;</text><text fill="#000000" font-family="Verdana" font-size="11" lengthAdjust="spacing" textLength="130.7002" x="358.9392" y="547.9539">&#1082;&#1086;&#1085;&#1092;&#1080;&#1075;&#1091;&#1088;&#1072;&#1094;&#1080;&#1080; &#1086;&#1090;&#1095;&#1077;&#1090;&#1086;&#1074;</text><text fill="#000000" font-family="Verdana" font-size="11" lengthAdjust="spacing" textLength="66.9023" x="526.0295" y="534.5852">&#1057;&#1091;&#1097;&#1077;&#1089;&#1090;&#1074;&#1091;&#1077;&#1090;</text><rect fill="#FFFFFF" height="49.168" rx="12.5" ry="12.5" style="stroke:#000000;stroke-width:1;" width="208.0801" x="332.4443" y="809.0313"/><text fill="#000000" font-family="Verdana" font-size="12" lengthAdjust="spacing" textLength="183.8613" x="342.4443" y="831.0957">&#1055;&#1086;&#1082;&#1072;&#1079;&#1099;&#1074;&#1072;&#1077;&#1090; &#1087;&#1088;&#1077;&#1076;&#1091;&#1087;&#1088;&#1077;&#1078;&#1076;&#1077;&#1085;&#1080;&#1077;</text><text fill="#000000" font-family="Verdana" font-size="12" lengthAdjust="spacing" textLength="141.6094" x="342.4443" y="845.6797">&#1086; &#1079;&#1072;&#1087;&#1091;&#1097;&#1077;&#1085;&#1085;&#1099;&#1093; &#1086;&#1090;&#1095;&#1077;&#1090;&#1072;&#1093;</text><rect fill="#FFFFFF" height="49.168" rx="12.5" ry="12.5" style="stroke:#000000;stroke-width:1;" width="186.8281" x="343.0703" y="878.1992"/><text fill="#000000" font-family="Verdana" font-size="12" lengthAdjust="spacing" textLength="162.6094" x="353.0703" y="900.2637">&#1057;&#1087;&#1088;&#1072;&#1096;&#1080;&#1074;&#1072;&#1077;&#1090; &#1086;&#1073; &#1086;&#1089;&#1090;&#1072;&#1085;&#1086;&#1074;&#1082;&#1077;</text><text fill="#000000" font-family="Verdana" font-size="12" lengthAdjust="spacing" textLength="130.2188" x="353.0703" y="914.8477">&#1079;&#1072;&#1087;&#1091;&#1097;&#1077;&#1085;&#1085;&#1099;&#1093; &#1086;&#1090;&#1095;&#1077;&#1090;&#1086;&#1074;</text><polygon fill="#FFFFFF" points="318.8896,753.6626,554.0791,753.6626,566.0791,765.6626,554.0791,777.6626,318.8896,777.6626,306.8896,765.6626,318.8896,753.6626" style="stroke:#000000;stroke-width:1;"/><text fill="#000000" font-family="Verdana" font-size="11" lengthAdjust="spacing" textLength="72.5259" x="440.4844" y="788.7217">&#1047;&#1072;&#1087;&#1091;&#1097;&#1077;&#1085;&#1085;&#1099;&#1077;</text><text fill="#000000" font-family="Verdana" font-size="11" lengthAdjust="spacing" textLength="67.5737" x="440.4844" y="802.0903">&#1086;&#1090;&#1095;&#1077;&#1090;&#1099; &#1077;&#1089;&#1090;&#1100;</text><text fill="#000000" font-family="Verdana" font-size="11" lengthAdjust="spacing" textLength="235.1895" x="318.8896" y="770.0374">&#1055;&#1088;&#1086;&#1074;&#1077;&#1088;&#1103;&#1077;&#1090; &#1085;&#1072;&#1083;&#1080;&#1095;&#1080;&#1077; &#1079;&#1072;&#1087;&#1091;&#1097;&#1077;&#1085;&#1085;&#1099;&#1093; &#1086;&#1090;&#1095;&#1077;&#1090;&#1086;&#1074;</text><text fill="#000000" font-family="Verdana" font-size="11" lengthAdjust="spacing" textLength="72.4829" x="566.0791" y="749.9844">&#1047;&#1072;&#1087;&#1091;&#1097;&#1077;&#1085;&#1085;&#1099;&#1093;</text><text fill="#000000" font-family="Verdana" font-size="11" lengthAdjust="spacing" textLength="66.9077" x="566.0791" y="763.353">&#1086;&#1090;&#1095;&#1077;&#1090;&#1086;&#1074; &#1085;&#1077;&#1090;</text><polygon fill="#FFFFFF" points="436.4844,1125.7432,448.4844,1137.7432,436.4844,1149.7432,424.4844,1137.7432,436.4844,1125.7432" style="stroke:#000000;stroke-width:1;"/><rect fill="#FFFFFF" height="34.584" rx="12.5" ry="12.5" style="stroke:#000000;stroke-width:1;" width="218.9785" x="326.9951" y="1169.7432"/><text fill="#000000" font-family="Verdana" font-size="12" lengthAdjust="spacing" textLength="198.9785" x="336.9951" y="1191.8076">&#1059;&#1076;&#1072;&#1083;&#1103;&#1077;&#1090; &#1082;&#1086;&#1085;&#1092;&#1080;&#1075;&#1091;&#1088;&#1072;&#1094;&#1080;&#1102; &#1086;&#1090;&#1095;&#1077;&#1090;&#1086;&#1074;</text><rect fill="#FFFFFF" height="34.584" rx="12.5" ry="12.5" style="stroke:#000000;stroke-width:1;" width="280.1797" x="296.3945" y="1224.3271"/><text fill="#000000" font-family="Verdana" font-size="12" lengthAdjust="spacing" textLength="260.1797" x="306.3945" y="1246.3916">&#1054;&#1073;&#1085;&#1086;&#1074;&#1083;&#1103;&#1077;&#1090; &#1089;&#1087;&#1080;&#1089;&#1086;&#1082; &#1082;&#1086;&#1085;&#1092;&#1080;&#1075;&#1091;&#1088;&#1072;&#1094;&#1080;&#1081; &#1086;&#1090;&#1095;&#1077;&#1090;&#1086;&#1074;</text><rect fill="#FFFFFF" height="34.584" rx="12.5" ry="12.5" style="stroke:#000000;stroke-width:1;" width="315.5117" x="278.7285" y="1278.9111"/><text fill="#000000" font-family="Verdana" font-size="12" lengthAdjust="spacing" textLength="295.5117" x="288.7285" y="1300.9756">&#1055;&#1086;&#1082;&#1072;&#1079;&#1099;&#1074;&#1072;&#1077;&#1090; &#1089;&#1086;&#1086;&#1073;&#1097;&#1077;&#1085;&#1080;&#1077; &#1086;&#1073; &#1091;&#1089;&#1087;&#1077;&#1096;&#1085;&#1086;&#1084; &#1091;&#1076;&#1072;&#1083;&#1077;&#1085;&#1080;&#1080;</text><ellipse cx="436.4844" cy="1344.4951" fill="none" rx="11" ry="11" style="stroke:#000000;stroke-width:1;"/><ellipse cx="436.4844" cy="1344.4951" fill="#FFFFFF" rx="6" ry="6" style="stroke:#000000;stroke-width:1;"/><line style="stroke:#000000;stroke-width:1;" x1="272.7285" x2="272.7285" y1="116.3379" y2="1355.4951"/><line style="stroke:#000000;stroke-width:1;" x1="647.4292" x2="647.4292" y1="116.3379" y2="1355.4951"/><line style="stroke:#000000;stroke-width:1;" x1="142.3643" x2="142.3643" y1="163.2139" y2="183.2139"/><polygon fill="#000000" points="138.3643,173.2139,142.3643,183.2139,146.3643,173.2139,142.3643,177.2139" style="stroke:#000000;stroke-width:1;"/><line style="stroke:#000000;stroke-width:1;" x1="142.3643" x2="142.3643" y1="217.7979" y2="237.7979"/><polygon fill="#000000" points="138.3643,227.7979,142.3643,237.7979,146.3643,227.7979,142.3643,231.7979" style="stroke:#000000;stroke-width:1;"/><line style="stroke:#000000;stroke-width:1;" x1="142.3643" x2="142.3643" y1="430.2341" y2="459.5261"/><polygon fill="#000000" points="138.3643,449.5261,142.3643,459.5261,146.3643,449.5261,142.3643,453.5261" style="stroke:#000000;stroke-width:1;"/><line style="stroke:#000000;stroke-width:1;" x1="142.3643" x2="142.3643" y1="370.9658" y2="395.6501"/><polygon fill="#000000" points="138.3643,385.6501,142.3643,395.6501,146.3643,385.6501,142.3643,389.6501" style="stroke:#000000;stroke-width:1;"/><line style="stroke:#000000;stroke-width:1;" x1="223.9736" x2="436.4844" y1="358.9658" y2="358.9658"/><polygon fill="#000000" points="432.4844,440.2341,436.4844,450.2341,440.4844,440.2341,436.4844,444.2341" style="stroke:#000000;stroke-width:1;"/><line style="stroke:#000000;stroke-width:1;" x1="436.4844" x2="436.4844" y1="358.9658" y2="523.5261"/><polygon fill="#000000" points="432.4844,513.5261,436.4844,523.5261,440.4844,513.5261,436.4844,517.5261" style="stroke:#000000;stroke-width:1;"/><line style="stroke:#000000;stroke-width:1;" x1="142.3643" x2="142.3643" y1="1030.6355" y2="1061.7432"/><polygon fill="#000000" points="138.3643,1051.7432,142.3643,1061.7432,146.3643,1051.7432,142.3643,1055.7432" style="stroke:#000000;stroke-width:1;"/><line style="stroke:#000000;stroke-width:1;" x1="142.3643" x2="142.3643" y1="971.3672" y2="996.0515"/><polygon fill="#000000" points="138.3643,986.0515,142.3643,996.0515,146.3643,986.0515,142.3643,990.0515" style="stroke:#000000;stroke-width:1;"/><line style="stroke:#000000;stroke-width:1;" x1="225.9368" x2="436.4844" y1="959.3672" y2="959.3672"/><polygon fill="#000000" points="432.4844,1040.6355,436.4844,1050.6355,440.4844,1040.6355,436.4844,1044.6355" style="stroke:#000000;stroke-width:1;"/><line style="stroke:#000000;stroke-width:1;" x1="436.4844" x2="436.4844" y1="959.3672" y2="1125.7432"/><polygon fill="#000000" points="432.4844,1115.7432,436.4844,1125.7432,440.4844,1115.7432,436.4844,1119.7432" style="stroke:#000000;stroke-width:1;"/><line style="stroke:#000000;stroke-width:1;" x1="436.4844" x2="436.4844" y1="609.5317" y2="629.5317"/><polygon fill="#000000" points="432.4844,619.5317,436.4844,629.5317,440.4844,619.5317,436.4844,623.5317" style="stroke:#000000;stroke-width:1;"/><line style="stroke:#000000;stroke-width:1;" x1="436.4844" x2="436.4844" y1="664.1157" y2="684.1157"/><polygon fill="#000000" points="432.4844,674.1157,436.4844,684.1157,440.4844,674.1157,436.4844,678.1157" style="stroke:#000000;stroke-width:1;"/><line style="stroke:#000000;stroke-width:1;" x1="436.4844" x2="436.4844" y1="550.2634" y2="574.9478"/><polygon fill="#000000" points="432.4844,564.9478,436.4844,574.9478,440.4844,564.9478,436.4844,568.9478" style="stroke:#000000;stroke-width:1;"/><line style="stroke:#000000;stroke-width:1;" x1="526.0295" x2="564.9414" y1="536.8948" y2="536.8948"/><polygon fill="#000000" points="560.9414,626.8474,564.9414,636.8474,568.9414,626.8474,564.9414,630.8474" style="stroke:#000000;stroke-width:1;"/><line style="stroke:#000000;stroke-width:1;" x1="564.9414" x2="564.9414" y1="536.8948" y2="728.1157"/><line style="stroke:#000000;stroke-width:1;" x1="564.9414" x2="436.4844" y1="728.1157" y2="728.1157"/><line style="stroke:#000000;stroke-width:1;" x1="436.4844" x2="436.4844" y1="728.1157" y2="753.6626"/><polygon fill="#000000" points="432.4844,743.6626,436.4844,753.6626,440.4844,743.6626,436.4844,747.6626" style="stroke:#000000;stroke-width:1;"/><line style="stroke:#000000;stroke-width:1;" x1="436.4844" x2="436.4844" y1="858.1992" y2="878.1992"/><polygon fill="#000000" points="432.4844,868.1992,436.4844,878.1992,440.4844,868.1992,436.4844,872.1992" style="stroke:#000000;stroke-width:1;"/><line style="stroke:#000000;stroke-width:1;" x1="436.4844" x2="436.4844" y1="777.6626" y2="809.0313"/><polygon fill="#000000" points="432.4844,799.0313,436.4844,809.0313,440.4844,799.0313,436.4844,803.0313" style="stroke:#000000;stroke-width:1;"/><line style="stroke:#000000;stroke-width:1;" x1="566.0791" x2="578.0791" y1="765.6626" y2="765.6626"/><polygon fill="#000000" points="574.0791,938.6755,578.0791,948.6755,582.0791,938.6755,578.0791,942.6755" style="stroke:#000000;stroke-width:1;"/><line style="stroke:#000000;stroke-width:1;" x1="578.0791" x2="578.0791" y1="765.6626" y2="1137.7432"/><line style="stroke:#000000;stroke-width:1;" x1="578.0791" x2="448.4844" y1="1137.7432" y2="1137.7432"/><polygon fill="#000000" points="458.4844,1133.7432,448.4844,1137.7432,458.4844,1141.7432,454.4844,1137.7432" style="stroke:#000000;stroke-width:1;"/><line style="stroke:#000000;stroke-width:1;" x1="436.4844" x2="436.4844" y1="1149.7432" y2="1169.7432"/><polygon fill="#000000" points="432.4844,1159.7432,436.4844,1169.7432,440.4844,1159.7432,436.4844,1163.7432" style="stroke:#000000;stroke-width:1;"/><line style="stroke:#000000;stroke-width:1;" x1="436.4844" x2="436.4844" y1="1204.3271" y2="1224.3271"/><polygon fill="#000000" points="432.4844,1214.3271,436.4844,1224.3271,440.4844,1214.3271,436.4844,1218.3271" style="stroke:#000000;stroke-width:1;"/><line style="stroke:#000000;stroke-width:1;" x1="436.4844" x2="436.4844" y1="1258.9111" y2="1278.9111"/><polygon fill="#000000" points="432.4844,1268.9111,436.4844,1278.9111,440.4844,1268.9111,436.4844,1272.9111" style="stroke:#000000;stroke-width:1;"/><line style="stroke:#000000;stroke-width:1;" x1="436.4844" x2="436.4844" y1="1313.4951" y2="1333.4951"/><polygon fill="#000000" points="432.4844,1323.4951,436.4844,1333.4951,440.4844,1323.4951,436.4844,1327.4951" style="stroke:#000000;stroke-width:1;"/><line style="stroke:#000000;stroke-width:1;" x1="142.3643" x2="142.3643" y1="272.3818" y2="277.3818"/><line style="stroke:#000000;stroke-width:1;" x1="142.3643" x2="436.4844" y1="277.3818" y2="277.3818"/><line style="stroke:#000000;stroke-width:1;" x1="436.4844" x2="436.4844" y1="277.3818" y2="292.3818"/><polygon fill="#000000" points="432.4844,282.3818,436.4844,292.3818,440.4844,282.3818,436.4844,286.3818" style="stroke:#000000;stroke-width:1;"/><line style="stroke:#000000;stroke-width:1;" x1="436.4844" x2="436.4844" y1="326.9658" y2="331.9658"/><line style="stroke:#000000;stroke-width:1;" x1="436.4844" x2="142.3643" y1="331.9658" y2="331.9658"/><line style="stroke:#000000;stroke-width:1;" x1="142.3643" x2="142.3643" y1="331.9658" y2="346.9658"/><polygon fill="#000000" points="138.3643,336.9658,142.3643,346.9658,146.3643,336.9658,142.3643,340.9658" style="stroke:#000000;stroke-width:1;"/><line style="stroke:#000000;stroke-width:1;" x1="436.4844" x2="436.4844" y1="927.3672" y2="932.3672"/><line style="stroke:#000000;stroke-width:1;" x1="436.4844" x2="142.3643" y1="932.3672" y2="932.3672"/><line style="stroke:#000000;stroke-width:1;" x1="142.3643" x2="142.3643" y1="932.3672" y2="947.3672"/><polygon fill="#000000" points="138.3643,937.3672,142.3643,947.3672,146.3643,937.3672,142.3643,941.3672" style="stroke:#000000;stroke-width:1;"/><text fill="#000000" font-family="Verdana" font-size="18" lengthAdjust="spacing" textLength="99.123" x="91.8027" y="134.4346">&#1057;&#1086;&#1090;&#1088;&#1091;&#1076;&#1085;&#1080;&#1082;</text><text fill="#000000" font-family="Verdana" font-size="18" lengthAdjust="spacing" textLength="76.7021" x="421.7278" y="134.4346">&#1057;&#1080;&#1089;&#1090;&#1077;&#1084;&#1072;</text><!--SRC=[bLJDRjD04BxxAROtUg0jaK0YHaX8VGPEN1Rg14kE4oK6gL8ESKEXA1MLK2Mu08fu0IUjgScFymepRyJChfqwJfQqFkskPxxvvfkVdLPRrXjIUFAu-IuGdOOJI5zQEy5Rf-68bYTTtx8yf-xuHo9ejeJdr09BqFVizVFAddZn9d3Vky6nE7HblIqRwjT3-d8R-0tN4C4KOfX30h602QGmnmzqkS8-zY32ZtHE1AHuWfyWnXE8Lc5UEksEs_Ihuc2leXuEPU1KnQCd-mTFzokFBUQcALfM5uOAg8Tz2imX9rsh4yYsPbs5hpY04IGSc6CP-E0NExF_pY2QeW9b7uLzbwHiJIZ1aBAAOGPHDuCTmaAPdP7PEAUo89HhiXpJjGT_A4WUO3KYNjY6J1dShOa7y6iDAjf8VLTGfNrok8HeLxaxNiUX-mysro-QyKz2coctY6f5NEDYdhbTXvf4m_X7RisGlcP8xgdcXnUQMqZQVQPZg8YdIXYT_ol_Bdr37ijyXaKiNRToVgM0HIETCeiu8Gutr3DvaJ2annH6x9TNdwvCWsiv8eVOBc1SajaqB_0D7HPAZtC1Oq4_KhWoY_SVhRWCv9vGveg2GjRPqAyv3l3KfCot3QQaxuenuvSLM_FJTLdwuK1eAV5ycuYg-MDgq7vsAlOwOsvDACBJeieRnoah2nUN-uW5d6ZyxMhPvldQEcFbcDXVdpBpfDrdsbQQvhPnRa-6xPCjvRoN32jmJPAC6ZMvpcow75pTrLnfqoxyQq2xpumHNAYaE5C4PkLjnljMoV4F]--></g></svg>