<svg xmlns="http://www.w3.org/2000/svg" xmlns:xlink="http://www.w3.org/1999/xlink" contentStyleType="text/css" data-diagram-type="ACTIVITY" height="741px" preserveAspectRatio="none" style="width:1041px;height:741px;background:#FFFFFF;" version="1.1" viewBox="0 0 1041 741" width="1041px" zoomAndPan="magnify"><defs/><g><g class="legend" data-source-line="5"><rect fill="none" height="132.0879" rx="7.5" ry="7.5" style="stroke:#000000;stroke-width:1;" width="329.915" x="10" y="10"/><text fill="#000000" font-family="Verdana" font-size="14" font-weight="bold" lengthAdjust="spacing" textLength="150.8965" x="15" y="29.0752">2. Activity Diagram</text><line style="stroke:#000000;stroke-width:1;" x1="10" x2="339.915" y1="37.0146" y2="37.0146"/><text fill="#000000" font-family="Verdana" font-size="14" font-weight="bold" lengthAdjust="spacing" textLength="319.915" x="15" y="56.0898">&#1055;&#1088;&#1077;&#1076;&#1086;&#1089;&#1090;&#1072;&#1074;&#1083;&#1077;&#1085;&#1080;&#1077; &#1076;&#1072;&#1085;&#1085;&#1099;&#1093; &#1076;&#1083;&#1103; &#1076;&#1072;&#1096;&#1073;&#1086;&#1088;&#1076;&#1072;</text><line style="stroke:#000000;stroke-width:1;" x1="10" x2="339.915" y1="64.0293" y2="64.0293"/><text fill="#000000" font-family="Verdana" font-size="14" lengthAdjust="spacing" textLength="86.5498" x="15" y="83.1045">Version: 0.1</text><text fill="#000000" font-family="Verdana" font-size="14" lengthAdjust="spacing" textLength="110.4482" x="15" y="100.1191">Date: 23/09/25</text><line style="stroke:#000000;stroke-width:1;" x1="10" x2="122.0952" y1="111.5659" y2="111.5659"/><text fill="#000000" font-family="Verdana" font-size="14" lengthAdjust="spacing" textLength="95.8809" x="127.0171" y="116.6338">&#1054;&#1073;&#1086;&#1079;&#1085;&#1072;&#1095;&#1077;&#1085;&#1080;&#1103;</text><line style="stroke:#000000;stroke-width:1;" x1="227.8198" x2="339.915" y1="111.5659" y2="111.5659"/><text fill="#000000" font-family="Verdana" font-size="14" lengthAdjust="spacing" textLength="162.7773" x="15" y="134.1484">PgSQL &#8212; Postgres SQL</text></g><rect fill="#FFFFFF" height="21.876" style="stroke:#FFFFFF;stroke-width:1;" width="1018.2529" x="10" y="150.3672"/><ellipse cx="133.6367" cy="187.2432" fill="#FFFFFF" rx="10" ry="10" style="stroke:#000000;stroke-width:1;"/><rect fill="#FFFFFF" height="34.584" rx="12.5" ry="12.5" style="stroke:#000000;stroke-width:1;" width="131.2988" x="67.9873" y="217.2432"/><text fill="#000000" font-family="Verdana" font-size="12" lengthAdjust="spacing" textLength="111.2988" x="77.9873" y="239.3076">&#1054;&#1090;&#1082;&#1088;&#1099;&#1090;&#1100; &#1076;&#1072;&#1096;&#1073;&#1086;&#1088;&#1076;</text><rect fill="#FFFFFF" height="34.584" rx="12.5" ry="12.5" style="stroke:#000000;stroke-width:1;" width="235.2734" x="16" y="657.4224"/><text fill="#000000" font-family="Verdana" font-size="12" lengthAdjust="spacing" textLength="215.2734" x="26" y="679.4868">&#1055;&#1088;&#1086;&#1089;&#1084;&#1086;&#1090;&#1088;&#1077;&#1090;&#1100; &#1076;&#1072;&#1085;&#1085;&#1099;&#1077; &#1085;&#1072; &#1076;&#1072;&#1096;&#1073;&#1086;&#1088;&#1076;&#1077;</text><ellipse cx="133.6367" cy="723.0063" fill="none" rx="11" ry="11" style="stroke:#000000;stroke-width:1;"/><ellipse cx="133.6367" cy="723.0063" fill="#FFFFFF" rx="6" ry="6" style="stroke:#000000;stroke-width:1;"/><line style="stroke:#000000;stroke-width:1;" x1="10" x2="10" y1="150.3672" y2="734.0063"/><rect fill="#FFFFFF" height="34.584" rx="12.5" ry="12.5" style="stroke:#000000;stroke-width:1;" width="111.4414" x="347.8545" y="271.8271"/><text fill="#000000" font-family="Verdana" font-size="12" lengthAdjust="spacing" textLength="91.4414" x="357.8545" y="293.8916">&#1042;&#1086;&#1081;&#1090;&#1080; &#1074; PgSQL</text><rect fill="#FFFFFF" height="34.584" rx="12.5" ry="12.5" style="stroke:#000000;stroke-width:1;" width="284.6035" x="261.2734" y="326.4111"/><text fill="#000000" font-family="Verdana" font-size="12" lengthAdjust="spacing" textLength="264.6035" x="271.2734" y="348.4756">&#1047;&#1072;&#1087;&#1088;&#1086;&#1089;&#1080;&#1090;&#1100; &#1076;&#1072;&#1085;&#1085;&#1099;&#1077; &#1076;&#1083;&#1103; &#1086;&#1073;&#1088;&#1072;&#1073;&#1086;&#1090;&#1082;&#1080; &#1091; PgSQL</text><rect fill="#FFFFFF" height="34.584" rx="12.5" ry="12.5" style="stroke:#000000;stroke-width:1;" width="223.0625" x="292.0439" y="548.2544"/><text fill="#000000" font-family="Verdana" font-size="12" lengthAdjust="spacing" textLength="203.0625" x="302.0439" y="570.3188">&#1054;&#1073;&#1088;&#1072;&#1073;&#1086;&#1090;&#1072;&#1090;&#1100; &#1087;&#1086;&#1083;&#1091;&#1095;&#1077;&#1085;&#1085;&#1099;&#1077; &#1076;&#1072;&#1085;&#1085;&#1099;&#1077;</text><rect fill="#FFFFFF" height="34.584" rx="12.5" ry="12.5" style="stroke:#000000;stroke-width:1;" width="282.623" x="262.2637" y="602.8384"/><text fill="#000000" font-family="Verdana" font-size="12" lengthAdjust="spacing" textLength="262.623" x="272.2637" y="624.9028">&#1055;&#1086;&#1082;&#1072;&#1079;&#1072;&#1090;&#1100; &#1075;&#1086;&#1090;&#1086;&#1074;&#1099;&#1081; &#1076;&#1072;&#1096;&#1073;&#1086;&#1088;&#1076; &#1087;&#1086;&#1083;&#1100;&#1079;&#1086;&#1074;&#1072;&#1090;&#1077;&#1083;&#1102;</text><line style="stroke:#000000;stroke-width:1;" x1="255.2734" x2="255.2734" y1="150.3672" y2="734.0063"/><rect fill="#FFFFFF" height="34.584" rx="12.5" ry="12.5" style="stroke:#000000;stroke-width:1;" width="195.0664" x="817.2959" y="380.9951"/><text fill="#000000" font-family="Verdana" font-size="12" lengthAdjust="spacing" textLength="175.0664" x="827.2959" y="403.0596">&#1055;&#1086;&#1083;&#1091;&#1095;&#1080;&#1090;&#1100; &#1079;&#1072;&#1087;&#1088;&#1086;&#1089; &#1085;&#1072; &#1076;&#1072;&#1085;&#1085;&#1099;&#1077;</text><rect fill="#FFFFFF" height="34.584" rx="12.5" ry="12.5" style="stroke:#000000;stroke-width:1;" width="214.5195" x="807.5693" y="435.5791"/><text fill="#000000" font-family="Verdana" font-size="12" lengthAdjust="spacing" textLength="194.5195" x="817.5693" y="457.6436">&#1048;&#1079;&#1074;&#1083;&#1077;&#1095;&#1100; &#1076;&#1072;&#1085;&#1085;&#1099;&#1077; &#1080;&#1079; &#1093;&#1088;&#1072;&#1085;&#1080;&#1083;&#1080;&#1097;&#1072;</text><path d="M554.877,486.6558 L554.877,528.2544 A0,0 0 0 0 554.877,528.2544 L791.5068,528.2544 A0,0 0 0 0 791.5068,528.2544 L791.5068,511.4551 L811.5068,507.4551 L791.5068,503.4551 L791.5068,496.6558 L781.5068,486.6558 L554.877,486.6558 A0,0 0 0 0 554.877,486.6558" fill="#FFFFFF" style="stroke:#000000;stroke-width:1;"/><path d="M781.5068,486.6558 L781.5068,496.6558 L791.5068,496.6558 L781.5068,486.6558" fill="#FFFFFF" style="stroke:#000000;stroke-width:1;"/><text fill="#000000" font-family="Verdana" font-size="13" lengthAdjust="spacing" textLength="146.834" x="560.877" y="504.7256">&#1077;&#1089;&#1083;&#1080; &#1089;&#1086;&#1074;&#1087;&#1072;&#1076;&#1077;&#1085;&#1080;&#1081; &#1085;&#1077;&#1090;,</text><text fill="#000000" font-family="Verdana" font-size="13" lengthAdjust="spacing" textLength="215.6299" x="560.877" y="520.5249">&#1074;&#1086;&#1079;&#1074;&#1088;&#1072;&#1097;&#1072;&#1077;&#1090;&#1089;&#1103; &#1087;&#1091;&#1089;&#1090;&#1086;&#1081; &#1088;&#1077;&#1079;&#1091;&#1083;&#1100;&#1090;&#1072;&#1090;</text><rect fill="#FFFFFF" height="34.584" rx="12.5" ry="12.5" style="stroke:#000000;stroke-width:1;" width="206.6445" x="811.5068" y="490.1631"/><text fill="#000000" font-family="Verdana" font-size="12" lengthAdjust="spacing" textLength="186.6445" x="821.5068" y="512.2275">&#1042;&#1077;&#1088;&#1085;&#1091;&#1090;&#1100; &#1089;&#1086;&#1074;&#1087;&#1072;&#1076;&#1072;&#1102;&#1097;&#1080;&#1077; &#1089;&#1090;&#1088;&#1086;&#1082;&#1080;</text><line style="stroke:#000000;stroke-width:1;" x1="549.877" x2="549.877" y1="150.3672" y2="734.0063"/><line style="stroke:#000000;stroke-width:1;" x1="1026.0889" x2="1026.0889" y1="150.3672" y2="734.0063"/><line style="stroke:#000000;stroke-width:1;" x1="133.6367" x2="133.6367" y1="197.2432" y2="217.2432"/><polygon fill="#000000" points="129.6367,207.2432,133.6367,217.2432,137.6367,207.2432,133.6367,211.2432" style="stroke:#000000;stroke-width:1;"/><line style="stroke:#000000;stroke-width:1;" x1="133.6367" x2="133.6367" y1="692.0063" y2="712.0063"/><polygon fill="#000000" points="129.6367,702.0063,133.6367,712.0063,137.6367,702.0063,133.6367,706.0063" style="stroke:#000000;stroke-width:1;"/><line style="stroke:#000000;stroke-width:1;" x1="403.5752" x2="403.5752" y1="306.4111" y2="326.4111"/><polygon fill="#000000" points="399.5752,316.4111,403.5752,326.4111,407.5752,316.4111,403.5752,320.4111" style="stroke:#000000;stroke-width:1;"/><line style="stroke:#000000;stroke-width:1;" x1="403.5752" x2="403.5752" y1="582.8384" y2="602.8384"/><polygon fill="#000000" points="399.5752,592.8384,403.5752,602.8384,407.5752,592.8384,403.5752,596.8384" style="stroke:#000000;stroke-width:1;"/><line style="stroke:#000000;stroke-width:1;" x1="914.8291" x2="914.8291" y1="415.5791" y2="435.5791"/><polygon fill="#000000" points="910.8291,425.5791,914.8291,435.5791,918.8291,425.5791,914.8291,429.5791" style="stroke:#000000;stroke-width:1;"/><line style="stroke:#000000;stroke-width:1;" x1="914.8291" x2="914.8291" y1="470.1631" y2="490.1631"/><polygon fill="#000000" points="910.8291,480.1631,914.8291,490.1631,918.8291,480.1631,914.8291,484.1631" style="stroke:#000000;stroke-width:1;"/><line style="stroke:#000000;stroke-width:1;" x1="133.6367" x2="133.6367" y1="251.8271" y2="256.8271"/><line style="stroke:#000000;stroke-width:1;" x1="133.6367" x2="403.5752" y1="256.8271" y2="256.8271"/><line style="stroke:#000000;stroke-width:1;" x1="403.5752" x2="403.5752" y1="256.8271" y2="271.8271"/><polygon fill="#000000" points="399.5752,261.8271,403.5752,271.8271,407.5752,261.8271,403.5752,265.8271" style="stroke:#000000;stroke-width:1;"/><line style="stroke:#000000;stroke-width:1;" x1="403.5752" x2="403.5752" y1="360.9951" y2="365.9951"/><line style="stroke:#000000;stroke-width:1;" x1="403.5752" x2="914.8291" y1="365.9951" y2="365.9951"/><line style="stroke:#000000;stroke-width:1;" x1="914.8291" x2="914.8291" y1="365.9951" y2="380.9951"/><polygon fill="#000000" points="910.8291,370.9951,914.8291,380.9951,918.8291,370.9951,914.8291,374.9951" style="stroke:#000000;stroke-width:1;"/><line style="stroke:#000000;stroke-width:1;" x1="914.8291" x2="914.8291" y1="524.7471" y2="533.2544"/><line style="stroke:#000000;stroke-width:1;" x1="914.8291" x2="403.5752" y1="533.2544" y2="533.2544"/><line style="stroke:#000000;stroke-width:1;" x1="403.5752" x2="403.5752" y1="533.2544" y2="548.2544"/><polygon fill="#000000" points="399.5752,538.2544,403.5752,548.2544,407.5752,538.2544,403.5752,542.2544" style="stroke:#000000;stroke-width:1;"/><line style="stroke:#000000;stroke-width:1;" x1="403.5752" x2="403.5752" y1="637.4224" y2="642.4224"/><line style="stroke:#000000;stroke-width:1;" x1="403.5752" x2="133.6367" y1="642.4224" y2="642.4224"/><line style="stroke:#000000;stroke-width:1;" x1="133.6367" x2="133.6367" y1="642.4224" y2="657.4224"/><polygon fill="#000000" points="129.6367,647.4224,133.6367,657.4224,137.6367,647.4224,133.6367,651.4224" style="stroke:#000000;stroke-width:1;"/><text fill="#000000" font-family="Verdana" font-size="18" lengthAdjust="spacing" textLength="128.874" x="68.1997" y="168.4639">&#1055;&#1086;&#1083;&#1100;&#1079;&#1086;&#1074;&#1072;&#1090;&#1077;&#1083;&#1100;</text><text fill="#000000" font-family="Verdana" font-size="18" lengthAdjust="spacing" textLength="79.0137" x="363.0684" y="168.4639">Datalens</text><text fill="#000000" font-family="Verdana" font-size="18" lengthAdjust="spacing" textLength="157.9395" x="709.0132" y="168.4639">&#1057;&#1080;&#1089;&#1090;&#1077;&#1084;&#1072; (PgSQL)</text><!--SRC=[VLDDYnD14BtFhwYzAUZk6l5W8eAmHmyhWlTMst5WCXDcMc4XXtomhEAoWWXwIl0Vp4Q796QJ_8Ngl-0lyLNtZ6uISKxTrLNllNfLizV9LDXM5AkJz8sXlAsDIbImPrxhjgPEhA8a268TwkGbcRH3iNvb0iBtuFd3nZuzUc6Yjv4veQD8XPbgkwVR-EeS7jiUb_o3LxPl1rpmX1UuBtd69I5SuBYq7-ofN1RseulPTto9WfwSDn6VwIoFqgH9X_jtNE186Tsanjs3m_i7ZNjLCl5807WAyCAUUJvWLo37uTCdZ-bNxpCTfxa9CvqJ0e6qw3iDWYwFKR-mvy1OGNC1xQNSkq5kLEOjQF88uP-s1_q3UxublGKKg5EnJl9kbVy9O7FKp8WdNaQhUla29zOeWqsGMgDvSxnJpfmLNoAfS1oW1f0Tra0G_GsrVIVrYWkwuHvkrkI-eo7yg0YcVpb9dDgWh8LzHPgRcJtR4JNZATbJ9qW6kW3mUowWfEwsnDiIb4A7niJ9DPB5fmkaoWw8Nj4WpNZE93NQ7L3U5z3DKhyySr5Ssi4jdpbnqvw8594WBm26OMkmYoFmdTmcJkrGvYYxQ0UkMERkE7VdDTgmk_2shV_uM5wVpuvpOzTK8JRxmkyE1PqWQxwrBJNizi9TjFwxZ1LJjJXNGY1T_cE1wlbU-xUW5DkSTdu3]--></g></svg>