<svg xmlns="http://www.w3.org/2000/svg" xmlns:xlink="http://www.w3.org/1999/xlink" contentStyleType="text/css" data-diagram-type="ACTIVITY" height="902px" preserveAspectRatio="none" style="width:880px;height:902px;background:#FFFFFF;" version="1.1" viewBox="0 0 880 902" width="880px" zoomAndPan="magnify"><defs/><g><g class="legend" data-source-line="5"><rect fill="none" height="132.0879" rx="7.5" ry="7.5" style="stroke:#000000;stroke-width:1;" width="343.2793" x="10" y="10"/><text fill="#000000" font-family="Verdana" font-size="14" font-weight="bold" lengthAdjust="spacing" textLength="150.8965" x="15" y="29.0752">2. Activity Diagram</text><line style="stroke:#000000;stroke-width:1;" x1="10" x2="353.2793" y1="37.0146" y2="37.0146"/><text fill="#000000" font-family="Verdana" font-size="14" font-weight="bold" lengthAdjust="spacing" textLength="123.5459" x="15" y="56.0898">&#1047;&#1072;&#1087;&#1091;&#1089;&#1082; &#1086;&#1090;&#1095;&#1077;&#1090;&#1086;&#1074;</text><line style="stroke:#000000;stroke-width:1;" x1="10" x2="353.2793" y1="64.0293" y2="64.0293"/><text fill="#000000" font-family="Verdana" font-size="14" lengthAdjust="spacing" textLength="86.5498" x="15" y="83.1045">Version: 0.2</text><text fill="#000000" font-family="Verdana" font-size="14" lengthAdjust="spacing" textLength="110.4482" x="15" y="100.1191">Date: 16/09/25</text><line style="stroke:#000000;stroke-width:1;" x1="10" x2="128.7773" y1="111.5659" y2="111.5659"/><text fill="#000000" font-family="Verdana" font-size="14" lengthAdjust="spacing" textLength="95.8809" x="133.6992" y="116.6338">&#1054;&#1073;&#1086;&#1079;&#1085;&#1072;&#1095;&#1077;&#1085;&#1080;&#1103;</text><line style="stroke:#000000;stroke-width:1;" x1="234.502" x2="353.2793" y1="111.5659" y2="111.5659"/><text fill="#000000" font-family="Verdana" font-size="14" font-weight="bold" lengthAdjust="spacing" textLength="24.1445" x="15" y="134.1484">&amp;&amp;</text><text fill="#000000" font-family="Verdana" font-size="14" lengthAdjust="spacing" textLength="304.2129" x="44.0664" y="134.1484">&#8212; &#1086;&#1073;&#1103;&#1079;&#1072;&#1090;&#1077;&#1083;&#1100;&#1085;&#1086; &#1089;&#1086;&#1073;&#1083;&#1102;&#1076;&#1077;&#1085;&#1080;&#1077; &#1074;&#1089;&#1077;&#1093; &#1091;&#1089;&#1083;&#1086;&#1074;&#1080;&#1081;</text></g><rect fill="#FFFFFF" height="21.876" style="stroke:#FFFFFF;stroke-width:1;" width="857.9238" x="10" y="150.3672"/><ellipse cx="127.2852" cy="187.2432" fill="#FFFFFF" rx="10" ry="10" style="stroke:#000000;stroke-width:1;"/><rect fill="#FFFFFF" height="34.584" rx="12.5" ry="12.5" style="stroke:#000000;stroke-width:1;" width="222.5703" x="16" y="217.2432"/><text fill="#000000" font-family="Verdana" font-size="12" lengthAdjust="spacing" textLength="202.5703" x="26" y="239.3076">&#1042;&#1099;&#1073;&#1080;&#1088;&#1072;&#1077;&#1090; &#1082;&#1086;&#1085;&#1092;&#1080;&#1075;&#1091;&#1088;&#1072;&#1094;&#1080;&#1102; &#1086;&#1090;&#1095;&#1077;&#1090;&#1072;</text><rect fill="#FFFFFF" height="34.584" rx="12.5" ry="12.5" style="stroke:#000000;stroke-width:1;" width="179.8262" x="37.3721" y="271.8271"/><text fill="#000000" font-family="Verdana" font-size="12" lengthAdjust="spacing" textLength="159.8262" x="47.3721" y="293.8916">&#1048;&#1085;&#1080;&#1094;&#1080;&#1080;&#1088;&#1091;&#1077;&#1090; &#1072;&#1087;&#1091;&#1089;&#1082; &#1086;&#1090;&#1095;&#1105;&#1090;&#1072;</text><line style="stroke:#000000;stroke-width:1;" x1="10" x2="10" y1="150.3672" y2="895.2893"/><rect fill="#FFFFFF" height="34.584" rx="12.5" ry="12.5" style="stroke:#000000;stroke-width:1;" width="313.0859" x="390.3765" y="391.2014"/><text fill="#000000" font-family="Verdana" font-size="12" lengthAdjust="spacing" textLength="293.0859" x="400.3765" y="413.2659">&#1054;&#1090;&#1086;&#1073;&#1088;&#1072;&#1078;&#1072;&#1077;&#1090; &#1089;&#1086;&#1086;&#1073;&#1097;&#1077;&#1085;&#1080;&#1077; &#1086;&#1073; &#1086;&#1096;&#1080;&#1073;&#1082;&#1077; &#1089;&#1086;&#1090;&#1088;&#1091;&#1076;&#1085;&#1080;&#1082;&#1091;</text><rect fill="#FFFFFF" height="34.584" rx="12.5" ry="12.5" style="stroke:#000000;stroke-width:1;" width="146.1172" x="473.8608" y="445.7854"/><text fill="#000000" font-family="Verdana" font-size="12" lengthAdjust="spacing" textLength="126.1172" x="483.8608" y="467.8499">&#1044;&#1077;&#1083;&#1072;&#1077;&#1090; &#1079;&#1072;&#1087;&#1080;&#1089;&#1100; &#1074; &#1083;&#1086;&#1075;</text><ellipse cx="546.9194" cy="511.3694" fill="none" rx="11" ry="11" style="stroke:#000000;stroke-width:1;"/><ellipse cx="546.9194" cy="511.3694" fill="#FFFFFF" rx="6" ry="6" style="stroke:#000000;stroke-width:1;"/><polygon fill="#FFFFFF" points="313.0083,326.4111,780.8306,326.4111,792.8306,346.4641,780.8306,366.5171,313.0083,366.5171,301.0083,346.4641,313.0083,326.4111" style="stroke:#000000;stroke-width:1;"/><text fill="#000000" font-family="Verdana" font-size="11" lengthAdjust="spacing" textLength="20.2759" x="550.9194" y="377.5762">&#1053;&#1077;&#1090;</text><text fill="#000000" font-family="Verdana" font-size="11" lengthAdjust="spacing" textLength="463.9551" x="313.0083" y="337.4702">&#1050;&#1086;&#1085;&#1092;&#1080;&#1075;&#1091;&#1088;&#1072;&#1094;&#1080;&#1103; &#1082;&#1086;&#1088;&#1088;&#1077;&#1082;&#1090;&#1085;&#1072;? (&#1085;&#1077;&#1086;&#1073;&#1093;&#1086;&#1076;&#1080;&#1084;&#1099;&#1077; &#1087;&#1086;&#1083;&#1103; &#1079;&#1072;&#1087;&#1086;&#1083;&#1085;&#1077;&#1085;&#1099;, &#1087;&#1072;&#1088;&#1072;&#1084;&#1077;&#1090;&#1088;&#1099; &#1074;&#1072;&#1083;&#1080;&#1076;&#1085;&#1099;)</text><text fill="#000000" font-family="Verdana" font-size="11" font-weight="bold" lengthAdjust="spacing" textLength="18.9707" x="313.0083" y="350.8389">&amp;&amp;</text><text fill="#000000" font-family="Verdana" font-size="11" lengthAdjust="spacing" textLength="107.8838" x="313.0083" y="364.2075">&#1054;&#1090;&#1095;&#1077;&#1090; &#1086;&#1089;&#1090;&#1072;&#1085;&#1086;&#1074;&#1083;&#1077;&#1085;?</text><text fill="#000000" font-family="Verdana" font-size="11" lengthAdjust="spacing" textLength="14.8081" x="792.8306" y="344.1545">&#1044;&#1072;</text><polygon fill="#FFFFFF" points="469.2346,564.3694,624.6042,564.3694,636.6042,576.3694,624.6042,588.3694,469.2346,588.3694,457.2346,576.3694,469.2346,564.3694" style="stroke:#000000;stroke-width:1;"/><text fill="#000000" font-family="Verdana" font-size="11" lengthAdjust="spacing" textLength="155.3696" x="469.2346" y="580.7441">Yandex Direct API &#1076;&#1086;&#1089;&#1090;&#1091;&#1087;&#1077;&#1085;</text><text fill="#000000" font-family="Verdana" font-size="11" lengthAdjust="spacing" textLength="14.8081" x="442.4265" y="574.0598">&#1044;&#1072;</text><text fill="#000000" font-family="Verdana" font-size="11" lengthAdjust="spacing" textLength="20.2759" x="636.6042" y="574.0598">&#1053;&#1077;&#1090;</text><rect fill="#FFFFFF" height="49.168" rx="12.5" ry="12.5" style="stroke:#000000;stroke-width:1;" width="280.1035" x="248.5703" y="598.3694"/><text fill="#000000" font-family="Verdana" font-size="12" lengthAdjust="spacing" textLength="75.1113" x="258.5703" y="620.4338">&#1048;&#1085;&#1080;&#1094;&#1080;&#1080;&#1088;&#1091;&#1077;&#1090;</text><text fill="#000000" font-family="Verdana" font-size="12" font-weight="bold" lengthAdjust="spacing" textLength="260.1035" x="258.5703" y="635.0178">&#1089;&#1073;&#1086;&#1088; &#1076;&#1072;&#1085;&#1085;&#1099;&#1093; &#1095;&#1077;&#1088;&#1077;&#1079; Yandex Direct API</text><rect fill="#FFFFFF" height="34.584" rx="12.5" ry="12.5" style="stroke:#000000;stroke-width:1;" width="313.0859" x="548.6738" y="598.3694"/><text fill="#000000" font-family="Verdana" font-size="12" lengthAdjust="spacing" textLength="293.0859" x="558.6738" y="620.4338">&#1054;&#1090;&#1086;&#1073;&#1088;&#1072;&#1078;&#1072;&#1077;&#1090; &#1089;&#1086;&#1086;&#1073;&#1097;&#1077;&#1085;&#1080;&#1077; &#1086;&#1073; &#1086;&#1096;&#1080;&#1073;&#1082;&#1077; &#1089;&#1086;&#1090;&#1088;&#1091;&#1076;&#1085;&#1080;&#1082;&#1091;</text><rect fill="#FFFFFF" height="34.584" rx="12.5" ry="12.5" style="stroke:#000000;stroke-width:1;" width="146.1172" x="632.1582" y="667.5374"/><text fill="#000000" font-family="Verdana" font-size="12" lengthAdjust="spacing" textLength="126.1172" x="642.1582" y="689.6018">&#1044;&#1077;&#1083;&#1072;&#1077;&#1090; &#1079;&#1072;&#1087;&#1080;&#1089;&#1100; &#1074; &#1083;&#1086;&#1075;</text><ellipse cx="705.2168" cy="733.1213" fill="none" rx="11" ry="11" style="stroke:#000000;stroke-width:1;"/><ellipse cx="705.2168" cy="733.1213" fill="#FFFFFF" rx="6" ry="6" style="stroke:#000000;stroke-width:1;"/><rect fill="#FFFFFF" height="34.584" rx="12.5" ry="12.5" style="stroke:#000000;stroke-width:1;" width="354.6465" x="369.5962" y="764.1213"/><text fill="#000000" font-family="Verdana" font-size="12" lengthAdjust="spacing" textLength="334.6465" x="379.5962" y="786.1858">&#1054;&#1073;&#1085;&#1086;&#1074;&#1083;&#1103;&#1077;&#1090; &#1089;&#1090;&#1072;&#1090;&#1091;&#1089; &#1082;&#1086;&#1085;&#1092;&#1080;&#1075;&#1091;&#1088;&#1072;&#1094;&#1080;&#1080; &#1086;&#1090;&#1095;&#1077;&#1090;&#1072; &#1085;&#1072; "&#1040;&#1082;&#1090;&#1080;&#1074;&#1077;&#1085;"</text><rect fill="#FFFFFF" height="34.584" rx="12.5" ry="12.5" style="stroke:#000000;stroke-width:1;" width="308.5449" x="392.647" y="818.7053"/><text fill="#000000" font-family="Verdana" font-size="12" lengthAdjust="spacing" textLength="288.5449" x="402.647" y="840.7698">&#1054;&#1090;&#1086;&#1073;&#1088;&#1072;&#1078;&#1072;&#1077;&#1090; &#1089;&#1086;&#1086;&#1073;&#1097;&#1077;&#1085;&#1080;&#1077; &#1086;&#1073; &#1091;&#1089;&#1087;&#1077;&#1093;&#1077; &#1089;&#1086;&#1090;&#1088;&#1091;&#1076;&#1085;&#1080;&#1082;&#1091;</text><ellipse cx="546.9194" cy="884.2893" fill="none" rx="11" ry="11" style="stroke:#000000;stroke-width:1;"/><ellipse cx="546.9194" cy="884.2893" fill="#FFFFFF" rx="6" ry="6" style="stroke:#000000;stroke-width:1;"/><line style="stroke:#000000;stroke-width:1;" x1="242.5703" x2="242.5703" y1="150.3672" y2="895.2893"/><line style="stroke:#000000;stroke-width:1;" x1="865.7598" x2="865.7598" y1="150.3672" y2="895.2893"/><line style="stroke:#000000;stroke-width:1;" x1="127.2852" x2="127.2852" y1="197.2432" y2="217.2432"/><polygon fill="#000000" points="123.2852,207.2432,127.2852,217.2432,131.2852,207.2432,127.2852,211.2432" style="stroke:#000000;stroke-width:1;"/><line style="stroke:#000000;stroke-width:1;" x1="127.2852" x2="127.2852" y1="251.8271" y2="271.8271"/><polygon fill="#000000" points="123.2852,261.8271,127.2852,271.8271,131.2852,261.8271,127.2852,265.8271" style="stroke:#000000;stroke-width:1;"/><line style="stroke:#000000;stroke-width:1;" x1="546.9194" x2="546.9194" y1="425.7854" y2="445.7854"/><polygon fill="#000000" points="542.9194,435.7854,546.9194,445.7854,550.9194,435.7854,546.9194,439.7854" style="stroke:#000000;stroke-width:1;"/><line style="stroke:#000000;stroke-width:1;" x1="546.9194" x2="546.9194" y1="480.3694" y2="500.3694"/><polygon fill="#000000" points="542.9194,490.3694,546.9194,500.3694,550.9194,490.3694,546.9194,494.3694" style="stroke:#000000;stroke-width:1;"/><line style="stroke:#000000;stroke-width:1;" x1="546.9194" x2="546.9194" y1="366.5171" y2="391.2014"/><polygon fill="#000000" points="542.9194,381.2014,546.9194,391.2014,550.9194,381.2014,546.9194,385.2014" style="stroke:#000000;stroke-width:1;"/><line style="stroke:#000000;stroke-width:1;" x1="792.8306" x2="804.8306" y1="346.4641" y2="346.4641"/><polygon fill="#000000" points="800.8306,439.7589,804.8306,449.7589,808.8306,439.7589,804.8306,443.7589" style="stroke:#000000;stroke-width:1;"/><line style="stroke:#000000;stroke-width:1;" x1="804.8306" x2="804.8306" y1="346.4641" y2="544.3694"/><line style="stroke:#000000;stroke-width:1;" x1="804.8306" x2="546.9194" y1="544.3694" y2="544.3694"/><line style="stroke:#000000;stroke-width:1;" x1="546.9194" x2="546.9194" y1="544.3694" y2="564.3694"/><polygon fill="#000000" points="542.9194,554.3694,546.9194,564.3694,550.9194,554.3694,546.9194,558.3694" style="stroke:#000000;stroke-width:1;"/><line style="stroke:#000000;stroke-width:1;" x1="705.2168" x2="705.2168" y1="632.9534" y2="667.5374"/><polygon fill="#000000" points="701.2168,657.5374,705.2168,667.5374,709.2168,657.5374,705.2168,661.5374" style="stroke:#000000;stroke-width:1;"/><line style="stroke:#000000;stroke-width:1;" x1="705.2168" x2="705.2168" y1="702.1213" y2="722.1213"/><polygon fill="#000000" points="701.2168,712.1213,705.2168,722.1213,709.2168,712.1213,705.2168,716.1213" style="stroke:#000000;stroke-width:1;"/><line style="stroke:#000000;stroke-width:1;" x1="457.2346" x2="388.6221" y1="576.3694" y2="576.3694"/><line style="stroke:#000000;stroke-width:1;" x1="388.6221" x2="388.6221" y1="576.3694" y2="598.3694"/><polygon fill="#000000" points="384.6221,588.3694,388.6221,598.3694,392.6221,588.3694,388.6221,592.3694" style="stroke:#000000;stroke-width:1;"/><line style="stroke:#000000;stroke-width:1;" x1="636.6042" x2="705.2168" y1="576.3694" y2="576.3694"/><line style="stroke:#000000;stroke-width:1;" x1="705.2168" x2="705.2168" y1="576.3694" y2="598.3694"/><polygon fill="#000000" points="701.2168,588.3694,705.2168,598.3694,709.2168,588.3694,705.2168,592.3694" style="stroke:#000000;stroke-width:1;"/><line style="stroke:#000000;stroke-width:1;" x1="388.6221" x2="388.6221" y1="647.5374" y2="749.1213"/><line style="stroke:#000000;stroke-width:1;" x1="388.6221" x2="546.9194" y1="749.1213" y2="749.1213"/><line style="stroke:#000000;stroke-width:1;" x1="546.9194" x2="546.9194" y1="749.1213" y2="764.1213"/><polygon fill="#000000" points="542.9194,754.1213,546.9194,764.1213,550.9194,754.1213,546.9194,758.1213" style="stroke:#000000;stroke-width:1;"/><line style="stroke:#000000;stroke-width:1;" x1="546.9194" x2="546.9194" y1="798.7053" y2="818.7053"/><polygon fill="#000000" points="542.9194,808.7053,546.9194,818.7053,550.9194,808.7053,546.9194,812.7053" style="stroke:#000000;stroke-width:1;"/><line style="stroke:#000000;stroke-width:1;" x1="546.9194" x2="546.9194" y1="853.2893" y2="873.2893"/><polygon fill="#000000" points="542.9194,863.2893,546.9194,873.2893,550.9194,863.2893,546.9194,867.2893" style="stroke:#000000;stroke-width:1;"/><line style="stroke:#000000;stroke-width:1;" x1="127.2852" x2="127.2852" y1="306.4111" y2="311.4111"/><line style="stroke:#000000;stroke-width:1;" x1="127.2852" x2="546.9194" y1="311.4111" y2="311.4111"/><line style="stroke:#000000;stroke-width:1;" x1="546.9194" x2="546.9194" y1="311.4111" y2="326.4111"/><polygon fill="#000000" points="542.9194,316.4111,546.9194,326.4111,550.9194,316.4111,546.9194,320.4111" style="stroke:#000000;stroke-width:1;"/><text fill="#000000" font-family="Verdana" font-size="18" lengthAdjust="spacing" textLength="99.123" x="76.7236" y="168.4639">&#1057;&#1086;&#1090;&#1088;&#1091;&#1076;&#1085;&#1080;&#1082;</text><text fill="#000000" font-family="Verdana" font-size="18" lengthAdjust="spacing" textLength="117.1582" x="495.5859" y="168.4639">&#1055;&#1088;&#1080;&#1083;&#1086;&#1078;&#1077;&#1085;&#1080;&#1077;</text><!--SRC=[rLHDRr9H4Ds_Np7jef54IoNHH6ZQDEd6dIiJ4pUlvO8lWGU1fx492oZMZz0KDIGQ4p7-0sYXFA70NvZx5_mbdfa7KgmiNCe2ClVEd3ddp5pMYYKtctSfvnuLdWTKpfl0zLrdBNXcyeQAETVp7ITdiiPFKr0eKiva0eVmsJxOIMpItc7WlV228zhtt6p9pUlL7NpcEVo9EporTLlZ8V747jittBV7FE7pvTp7fbJs2dwIjZOJUh3l1YP9T-_7jnx44_TcoSHjxg9um6Fk21H-GzkaHSEDZUtumGxzhBRGZhksYTmE6lPvP4-HFI5GmGN2C-v50DmdFiTntvwGKXq9Fvp_S4Ht9DznAlnT5LHj7PLIDwmuvS0jHOua-QDj03YqLMY6IE8XSCRs5J8lW8jZ-nhNPzUDwAHcnPzL2ku501qKu4_lx8Ue15o-0IzKffTp5HM5yZ9qYx_yjNDJAG6-Yf8XeE3YBhB72CMi4tptK7C58V1aYd0aHGCX8e5cZctZjbnsLEYLC0La0nuY7A6y9oanUkhhFF3BxRbUqL4J3J8A58m4RpT6s3SVH5hSYQa8aoiRn5-b9Zg9N6hhxdIry-NCPXse7BvRZ1EXj7gBg0lDVKrQdfsjfwu1jsH3vdEBz8PWUWfLf2vVBBBBU0aHIp_jPHpdj-rFN3zjNk8nbCnXG7kF7XAQgM2qdGgxcqfNJr_z0- -kZ4oGn3GuArigPieG1tIZP-h_Ct163PrcMu5d6n6JLH7tR6t5Q-9mwJMHh3IjytjTxn1OKBG-VsF_8bxVtLJ-4rQATrJ7Bm00]--></g></svg>