<!--
  - Pavel Isaenko Copyright (c) 2025.
  -->

<svg width="13" height="13" viewBox="0 0 13 13" fill="none" xmlns="http://www.w3.org/2000/svg">
<path d="M11.7907 6.5C11.7907 3.57803 9.42197 1.2093 6.5 1.2093C3.57803 1.2093 1.2093 3.57803 1.2093 6.5C1.2093 9.42197 3.57803 11.7907 6.5 11.7907V13C2.91015 13 0 10.0899 0 6.5C0 2.91015 2.91015 0 6.5 0C10.0899 0 13 2.91015 13 6.5C13 10.0899 10.0899 13 6.5 13V11.7907C9.42197 11.7907 11.7907 9.42197 11.7907 6.5Z" fill="black"/>
<path d="M6.93942 4.393C6.66854 4.393 6.47828 4.3414 6.36863 4.23821C6.26544 4.13501 6.21384 4.00925 6.21384 3.8609C6.21384 3.82866 6.21707 3.78673 6.22352 3.73514C6.22997 3.68354 6.23964 3.61259 6.25254 3.5223C6.28479 3.33526 6.36218 3.19014 6.48473 3.08695C6.61372 2.97731 6.81366 2.92249 7.08454 2.92249C7.35542 2.92249 7.54246 2.97408 7.64566 3.07728C7.7553 3.18047 7.81012 3.30624 7.81012 3.45458C7.81012 3.48683 7.8069 3.52875 7.80045 3.58035C7.794 3.63194 7.78432 3.70289 7.77142 3.79318C7.73918 3.98022 7.65856 4.12856 7.52956 4.23821C7.40702 4.3414 7.21031 4.393 6.93942 4.393ZM6.4557 10.2944C6.10742 10.2944 5.84299 10.2041 5.6624 10.0235C5.48181 9.83647 5.39152 9.58816 5.39152 9.27858C5.39152 9.18828 5.39797 9.09477 5.41087 8.99802C5.42376 8.90128 5.44634 8.77551 5.47859 8.62072L5.95263 6.15374H4.34668L4.51114 5.1863H7.34575L6.56212 9.2689L6.74594 9.32695L8.26482 7.86611L8.94203 8.4756L8.26482 9.19151C7.90364 9.57849 7.58439 9.85904 7.30705 10.0332C7.03617 10.2073 6.75239 10.2944 6.4557 10.2944Z" fill="black"/>
</svg>
