<svg width="128" height="128" viewBox="0 0 128 128" fill="none" xmlns="http://www.w3.org/2000/svg">
<rect width="128" height="128" rx="32" fill="white"/>
<path d="M59.761 37H79.7845C83.2867 37 86.4844 37.5583 89.3775 38.675C92.2706 39.7916 94.7323 41.4666 96.7626 43.6999C98.7929 45.8824 100.366 48.6487 101.483 51.9986C102.6 55.2978 103.158 59.1553 103.158 63.5711C103.158 67.9869 102.6 71.8698 101.483 75.2198C100.366 78.5189 98.7929 81.2852 96.7626 83.5185C94.7323 85.701 92.2706 87.3506 89.3775 88.4673C86.4844 89.5839 83.2867 90.1422 79.7845 90.1422H59.761V37ZM79.7845 79.864C83.2359 79.864 85.9514 78.8996 87.9309 76.9709C89.9104 75.0421 90.9002 71.946 90.9002 67.6824V59.4598C90.9002 55.1963 89.9104 52.1001 87.9309 50.1714C85.9514 48.2426 83.2359 47.2782 79.7845 47.2782H71.3335V79.864H79.7845Z" fill="#3137BE"/>
<path d="M24.8423 90.1422V80.9299H31.6944V46.2123H24.8423V37H50.1191V46.2123H43.267V80.9299H50.1191V90.1422H24.8423Z" fill="#3137BE"/>
</svg>
