<svg xmlns="http://www.w3.org/2000/svg" xmlns:xlink="http://www.w3.org/1999/xlink" contentStyleType="text/css" data-diagram-type="ACTIVITY" height="679px" preserveAspectRatio="none" style="width:1297px;height:679px;background:#FFFFFF;" version="1.1" viewBox="0 0 1297 679" width="1297px" zoomAndPan="magnify"><defs/><g><g class="legend" data-source-line="5"><rect fill="none" height="149.1025" rx="7.5" ry="7.5" style="stroke:#000000;stroke-width:1;" width="330.9678" x="10" y="10"/><text fill="#000000" font-family="Verdana" font-size="14" font-weight="bold" lengthAdjust="spacing" textLength="150.8965" x="15" y="29.0752">2. Activity Diagram</text><line style="stroke:#000000;stroke-width:1;" x1="10" x2="340.9678" y1="37.0146" y2="37.0146"/><text fill="#000000" font-family="Verdana" font-size="14" font-weight="bold" lengthAdjust="spacing" textLength="275.7139" x="15" y="56.0898">&#1044;&#1086;&#1073;&#1072;&#1074;&#1083;&#1077;&#1085;&#1080;&#1077; &#1085;&#1086;&#1074;&#1086;&#1075;&#1086; &#1087;&#1086;&#1083;&#1100;&#1079;&#1086;&#1074;&#1072;&#1090;&#1077;&#1083;&#1103;</text><line style="stroke:#000000;stroke-width:1;" x1="10" x2="340.9678" y1="64.0293" y2="64.0293"/><text fill="#000000" font-family="Verdana" font-size="14" lengthAdjust="spacing" textLength="86.5498" x="15" y="83.1045">Version: 0.1</text><text fill="#000000" font-family="Verdana" font-size="14" lengthAdjust="spacing" textLength="110.4482" x="15" y="100.1191">Date: 16/09/25</text><line style="stroke:#000000;stroke-width:1;" x1="10" x2="122.6216" y1="111.5659" y2="111.5659"/><text fill="#000000" font-family="Verdana" font-size="14" lengthAdjust="spacing" textLength="95.8809" x="127.5435" y="116.6338">&#1054;&#1073;&#1086;&#1079;&#1085;&#1072;&#1095;&#1077;&#1085;&#1080;&#1103;</text><line style="stroke:#000000;stroke-width:1;" x1="228.3462" x2="340.9678" y1="111.5659" y2="111.5659"/><text fill="#000000" font-family="Verdana" font-size="14" font-weight="bold" lengthAdjust="spacing" textLength="15.2168" x="15" y="134.1484">||</text><text fill="#000000" font-family="Verdana" font-size="14" lengthAdjust="spacing" textLength="300.8291" x="35.1387" y="134.1484">&#8212; &#1061;&#1086;&#1090;&#1103; &#1073;&#1099; &#1086;&#1076;&#1085;&#1086; &#1080;&#1079; &#1091;&#1089;&#1083;&#1086;&#1074;&#1080;&#1081; &#1074;&#1099;&#1087;&#1086;&#1083;&#1085;&#1103;&#1077;&#1090;&#1089;&#1103;</text><text fill="#000000" font-family="Verdana" font-size="14" lengthAdjust="spacing" textLength="21.6357" x="15" y="151.1631">.../</text><text fill="#000000" font-family="Verdana" font-size="14" font-weight="bold" lengthAdjust="spacing" textLength="83.6104" x="36.6357" y="151.1631">&#1089;&#1086;&#1090;&#1088;&#1091;&#1076;&#1085;&#1080;&#1082;</text><text fill="#000000" font-family="Verdana" font-size="14" lengthAdjust="spacing" textLength="174.5283" x="120.2461" y="151.1631">] &#8212; &#1088;&#1086;&#1083;&#1100; &#1087;&#1086;-&#1091;&#1084;&#1086;&#1083;&#1095;&#1072;&#1085;&#1080;&#1102;</text></g><rect fill="#FFFFFF" height="21.876" style="stroke:#FFFFFF;stroke-width:1;" width="1274.9478" x="10" y="167.3818"/><ellipse cx="370.001" cy="204.2578" fill="#FFFFFF" rx="10" ry="10" style="stroke:#000000;stroke-width:1;"/><rect fill="#FFFFFF" height="34.584" rx="12.5" ry="12.5" style="stroke:#000000;stroke-width:1;" width="259.7949" x="240.1035" y="234.2578"/><text fill="#000000" font-family="Verdana" font-size="12" lengthAdjust="spacing" textLength="239.7949" x="250.1035" y="256.3223">&#1048;&#1085;&#1080;&#1094;&#1080;&#1080;&#1088;&#1086;&#1074;&#1072;&#1090;&#1100; &#1089;&#1086;&#1079;&#1076;&#1072;&#1085;&#1080;&#1077; &#1087;&#1086;&#1083;&#1100;&#1079;&#1086;&#1074;&#1072;&#1090;&#1077;&#1083;&#1103;</text><rect fill="#000000" height="6" rx="2.5" ry="2.5" style="stroke:#000000;stroke-width:1;" width="708.002" x="16" y="332.8418"/><rect fill="#FFFFFF" height="34.584" rx="12.5" ry="12.5" style="stroke:#000000;stroke-width:1;" width="184.1621" x="28" y="393.6338"/><text fill="#000000" font-family="Verdana" font-size="12" lengthAdjust="spacing" textLength="164.1621" x="38" y="415.6982">&#1042;&#1074;&#1077;&#1089;&#1090;&#1080; &#1060;&#1048;&#1054; &#1087;&#1086;&#1083;&#1100;&#1079;&#1086;&#1074;&#1072;&#1090;&#1077;&#1083;&#1103;</text><rect fill="#FFFFFF" height="34.584" rx="12.5" ry="12.5" style="stroke:#000000;stroke-width:1;" width="102.4883" x="222.1621" y="393.6338"/><text fill="#000000" font-family="Verdana" font-size="12" lengthAdjust="spacing" textLength="82.4883" x="232.1621" y="415.6982">&#1042;&#1074;&#1077;&#1089;&#1090;&#1080; &#1083;&#1086;&#1075;&#1080;&#1085;</text><rect fill="#FFFFFF" height="34.584" rx="12.5" ry="12.5" style="stroke:#000000;stroke-width:1;" width="110.6855" x="371.0811" y="358.8418"/><text fill="#000000" font-family="Verdana" font-size="12" lengthAdjust="spacing" textLength="90.6855" x="381.0811" y="380.9063">&#1042;&#1074;&#1077;&#1089;&#1090;&#1080; &#1087;&#1072;&#1088;&#1086;&#1083;&#1100;</text><rect fill="#FFFFFF" height="34.584" rx="12.5" ry="12.5" style="stroke:#000000;stroke-width:1;" width="147.5469" x="352.6504" y="428.4258"/><text fill="#000000" font-family="Verdana" font-size="12" lengthAdjust="spacing" textLength="127.5469" x="362.6504" y="450.4902">&#1055;&#1086;&#1076;&#1090;&#1074;&#1077;&#1088;&#1076;&#1080;&#1090;&#1100; &#1087;&#1072;&#1088;&#1086;&#1083;&#1100;</text><rect fill="#FFFFFF" height="49.168" rx="12.5" ry="12.5" style="stroke:#000000;stroke-width:1;" width="201.8047" x="510.1973" y="386.3418"/><text fill="#000000" font-family="Verdana" font-size="12" lengthAdjust="spacing" textLength="85.8926" x="520.1973" y="408.4063">&#1042;&#1099;&#1073;&#1088;&#1072;&#1090;&#1100; &#1088;&#1086;&#1083;&#1100;</text><text fill="#000000" font-family="Verdana" font-size="12" lengthAdjust="spacing" textLength="104.6895" x="520.1973" y="422.9902">[&#1072;&#1076;&#1084;&#1080;&#1085;&#1080;&#1089;&#1090;&#1088;&#1072;&#1090;&#1086;&#1088;/</text><text fill="#000000" font-family="Verdana" font-size="12" font-weight="bold" lengthAdjust="spacing" textLength="71.666" x="624.8867" y="422.9902">&#1089;&#1086;&#1090;&#1088;&#1091;&#1076;&#1085;&#1080;&#1082;</text><text fill="#000000" font-family="Verdana" font-size="12" lengthAdjust="spacing" textLength="5.4492" x="696.5527" y="422.9902">]</text><rect fill="#000000" height="6" rx="2.5" ry="2.5" style="stroke:#000000;stroke-width:1;" width="708.002" x="16" y="483.0098"/><polygon fill="#FFFFFF" points="370.001,288.8418,382.001,300.8418,370.001,312.8418,358.001,300.8418,370.001,288.8418" style="stroke:#000000;stroke-width:1;"/><line style="stroke:#000000;stroke-width:1;" x1="10" x2="10" y1="167.3818" y2="672.437"/><polygon fill="#FFFFFF" points="755.002,509.0098,975.0557,509.0098,987.0557,542.4314,975.0557,575.853,755.002,575.853,743.002,542.4314,755.002,509.0098" style="stroke:#000000;stroke-width:1;"/><text fill="#000000" font-family="Verdana" font-size="11" lengthAdjust="spacing" textLength="96.1587" x="755.002" y="520.0688">&#1060;&#1048;&#1054; &#1086;&#1090;&#1089;&#1091;&#1090;&#1089;&#1090;&#1074;&#1091;&#1077;&#1090;</text><text fill="#000000" font-family="Verdana" font-size="11" font-weight="bold" lengthAdjust="spacing" textLength="11.9561" x="755.002" y="533.4375">||</text><text fill="#000000" font-family="Verdana" font-size="11" lengthAdjust="spacing" textLength="3.8672" x="766.958" y="533.4375">&#160;</text><text fill="#000000" font-family="Verdana" font-size="11" lengthAdjust="spacing" textLength="128.6592" x="755.002" y="546.8062">&#1051;&#1086;&#1075;&#1080;&#1085; &#1091;&#1078;&#1077; &#1089;&#1091;&#1097;&#1077;&#1089;&#1090;&#1074;&#1091;&#1077;&#1090;</text><text fill="#000000" font-family="Verdana" font-size="11" font-weight="bold" lengthAdjust="spacing" textLength="11.9561" x="755.002" y="560.1748">||</text><text fill="#000000" font-family="Verdana" font-size="11" lengthAdjust="spacing" textLength="3.8672" x="766.958" y="560.1748">&#160;</text><text fill="#000000" font-family="Verdana" font-size="11" lengthAdjust="spacing" textLength="220.0537" x="755.002" y="573.5435">&#1055;&#1072;&#1088;&#1086;&#1083;&#1100; &#1085;&#1077; &#1089;&#1086;&#1086;&#1090;&#1074;&#1077;&#1090;&#1089;&#1090;&#1074;&#1091;&#1077;&#1090; &#1090;&#1088;&#1077;&#1073;&#1086;&#1074;&#1072;&#1085;&#1080;&#1103;&#1084;</text><text fill="#000000" font-family="Verdana" font-size="11" lengthAdjust="spacing" textLength="14.8081" x="987.0557" y="540.1218">&#1044;&#1072;</text><rect fill="#FFFFFF" height="49.168" rx="12.5" ry="12.5" style="stroke:#000000;stroke-width:1;" width="266.9199" x="1011.8638" y="407.7634"/><text fill="#000000" font-family="Verdana" font-size="12" lengthAdjust="spacing" textLength="129.8027" x="1021.8638" y="429.8279">&#1055;&#1086;&#1082;&#1072;&#1079;&#1072;&#1090;&#1100; &#1089;&#1086;&#1086;&#1073;&#1097;&#1077;&#1085;&#1080;&#1103;</text><text fill="#000000" font-family="Verdana" font-size="12" lengthAdjust="spacing" textLength="246.9199" x="1021.8638" y="444.4119">&#1086;&#1073; &#1086;&#1096;&#1080;&#1073;&#1082;&#1072;&#1093; &#1074;&#1086;&#1079;&#1083;&#1077; &#1085;&#1077;&#1082;&#1086;&#1088;&#1088;&#1077;&#1082;&#1090;&#1085;&#1099;&#1093; &#1087;&#1086;&#1083;&#1077;&#1081;</text><rect fill="#FFFFFF" height="34.584" rx="12.5" ry="12.5" style="stroke:#000000;stroke-width:1;" width="222.8633" x="753.5972" y="595.853"/><text fill="#000000" font-family="Verdana" font-size="12" lengthAdjust="spacing" textLength="202.8633" x="763.5972" y="617.9175">&#1054;&#1073;&#1085;&#1086;&#1074;&#1080;&#1090;&#1100; &#1089;&#1087;&#1080;&#1089;&#1086;&#1082; &#1087;&#1086;&#1083;&#1100;&#1079;&#1086;&#1074;&#1072;&#1090;&#1077;&#1083;&#1077;&#1081;</text><ellipse cx="865.0288" cy="661.437" fill="none" rx="11" ry="11" style="stroke:#000000;stroke-width:1;"/><ellipse cx="865.0288" cy="661.437" fill="#FFFFFF" rx="6" ry="6" style="stroke:#000000;stroke-width:1;"/><line style="stroke:#000000;stroke-width:1;" x1="728.002" x2="728.002" y1="167.3818" y2="672.437"/><line style="stroke:#000000;stroke-width:1;" x1="1282.7837" x2="1282.7837" y1="167.3818" y2="672.437"/><line style="stroke:#000000;stroke-width:1;" x1="370.001" x2="370.001" y1="214.2578" y2="234.2578"/><polygon fill="#000000" points="366.001,224.2578,370.001,234.2578,374.001,224.2578,370.001,228.2578" style="stroke:#000000;stroke-width:1;"/><line style="stroke:#000000;stroke-width:1;" x1="426.4238" x2="426.4238" y1="393.4258" y2="428.4258"/><polygon fill="#000000" points="422.4238,418.4258,426.4238,428.4258,430.4238,418.4258,426.4238,422.4258" style="stroke:#000000;stroke-width:1;"/><line style="stroke:#000000;stroke-width:1;" x1="120.0811" x2="120.0811" y1="338.8418" y2="393.6338"/><polygon fill="#000000" points="116.0811,383.6338,120.0811,393.6338,124.0811,383.6338,120.0811,387.6338" style="stroke:#000000;stroke-width:1;"/><line style="stroke:#000000;stroke-width:1;" x1="273.4063" x2="273.4063" y1="338.8418" y2="393.6338"/><polygon fill="#000000" points="269.4063,383.6338,273.4063,393.6338,277.4063,383.6338,273.4063,387.6338" style="stroke:#000000;stroke-width:1;"/><line style="stroke:#000000;stroke-width:1;" x1="426.4238" x2="426.4238" y1="338.8418" y2="358.8418"/><polygon fill="#000000" points="422.4238,348.8418,426.4238,358.8418,430.4238,348.8418,426.4238,352.8418" style="stroke:#000000;stroke-width:1;"/><line style="stroke:#000000;stroke-width:1;" x1="611.0996" x2="611.0996" y1="338.8418" y2="386.3418"/><polygon fill="#000000" points="607.0996,376.3418,611.0996,386.3418,615.0996,376.3418,611.0996,380.3418" style="stroke:#000000;stroke-width:1;"/><line style="stroke:#000000;stroke-width:1;" x1="120.0811" x2="120.0811" y1="428.2178" y2="483.0098"/><polygon fill="#000000" points="116.0811,473.0098,120.0811,483.0098,124.0811,473.0098,120.0811,477.0098" style="stroke:#000000;stroke-width:1;"/><line style="stroke:#000000;stroke-width:1;" x1="273.4063" x2="273.4063" y1="428.2178" y2="483.0098"/><polygon fill="#000000" points="269.4063,473.0098,273.4063,483.0098,277.4063,473.0098,273.4063,477.0098" style="stroke:#000000;stroke-width:1;"/><line style="stroke:#000000;stroke-width:1;" x1="426.4238" x2="426.4238" y1="463.0098" y2="483.0098"/><polygon fill="#000000" points="422.4238,473.0098,426.4238,483.0098,430.4238,473.0098,426.4238,477.0098" style="stroke:#000000;stroke-width:1;"/><line style="stroke:#000000;stroke-width:1;" x1="611.0996" x2="611.0996" y1="435.5098" y2="483.0098"/><polygon fill="#000000" points="607.0996,473.0098,611.0996,483.0098,615.0996,473.0098,611.0996,477.0098" style="stroke:#000000;stroke-width:1;"/><line style="stroke:#000000;stroke-width:1;" x1="370.001" x2="370.001" y1="312.8418" y2="332.8418"/><polygon fill="#000000" points="366.001,322.8418,370.001,332.8418,374.001,322.8418,370.001,326.8418" style="stroke:#000000;stroke-width:1;"/><line style="stroke:#000000;stroke-width:1;" x1="370.001" x2="370.001" y1="268.8418" y2="288.8418"/><polygon fill="#000000" points="366.001,278.8418,370.001,288.8418,374.001,278.8418,370.001,282.8418" style="stroke:#000000;stroke-width:1;"/><line style="stroke:#000000;stroke-width:1;" x1="987.0557" x2="1145.3237" y1="542.4314" y2="542.4314"/><line style="stroke:#000000;stroke-width:1;" x1="1145.3237" x2="1145.3237" y1="456.9314" y2="542.4314"/><polygon fill="#000000" points="1141.3237,466.9314,1145.3237,456.9314,1149.3237,466.9314,1145.3237,462.9314" style="stroke:#000000;stroke-width:1;"/><line style="stroke:#000000;stroke-width:1;" x1="865.0288" x2="865.0288" y1="575.853" y2="595.853"/><polygon fill="#000000" points="861.0288,585.853,865.0288,595.853,869.0288,585.853,865.0288,589.853" style="stroke:#000000;stroke-width:1;"/><line style="stroke:#000000;stroke-width:1;" x1="865.0288" x2="865.0288" y1="630.437" y2="650.437"/><polygon fill="#000000" points="861.0288,640.437,865.0288,650.437,869.0288,640.437,865.0288,644.437" style="stroke:#000000;stroke-width:1;"/><line style="stroke:#000000;stroke-width:1;" x1="1145.3237" x2="1145.3237" y1="300.8418" y2="407.7634"/><line style="stroke:#000000;stroke-width:1;" x1="1145.3237" x2="382.001" y1="300.8418" y2="300.8418"/><polygon fill="#000000" points="392.001,296.8418,382.001,300.8418,392.001,304.8418,388.001,300.8418" style="stroke:#000000;stroke-width:1;"/><line style="stroke:#000000;stroke-width:1;" x1="370.001" x2="370.001" y1="489.0098" y2="494.0098"/><line style="stroke:#000000;stroke-width:1;" x1="370.001" x2="865.0288" y1="494.0098" y2="494.0098"/><line style="stroke:#000000;stroke-width:1;" x1="865.0288" x2="865.0288" y1="494.0098" y2="509.0098"/><polygon fill="#000000" points="861.0288,499.0098,865.0288,509.0098,869.0288,499.0098,865.0288,503.0098" style="stroke:#000000;stroke-width:1;"/><text fill="#000000" font-family="Verdana" font-size="18" lengthAdjust="spacing" textLength="142.1807" x="297.9106" y="185.4785">&#1040;&#1076;&#1084;&#1080;&#1085;&#1080;&#1089;&#1090;&#1088;&#1072;&#1090;&#1086;&#1088;</text><text fill="#000000" font-family="Verdana" font-size="18" lengthAdjust="spacing" textLength="76.7021" x="967.0417" y="185.4785">&#1057;&#1080;&#1089;&#1090;&#1077;&#1084;&#1072;</text><!--SRC=[XLJTRX9H4Bu_Jp6zqbuKsYQQ24qJapw3D-h5eTtIJVdBijequMA1Q6tQY35SD35fOwBtWAmiVyihp7a5dyIPEKiffk1UmFxCVDyttyoSZOgdyqKD1NrUVkT3jUZukgJLXd_Y51se5BHRKghWv9tI4VZb2XISOry1NNkv_TqKl3pqtVUkVmu7hivxkYYVjkYQns0RO-nY1tiunX2d6648z1VJYnX_OGmuevknkSQ1lEoO1iMDJMiPwfNZLTroAGFRgHrvSQ1z9mCxpzFRBzAxpv9Wm5iYYmbgIa0Nbj2qOA6dLjjBv_RXJz06_8cnQT1Nx9eheAm-wm9IE03JD7KIp88Y70Bsp9NLYLFJmf3Iwed2L2gL9bmAPx30D0KcmX7pl1KY4zWAfTGjYfZ8ymMvml8-ApRNUgoKgk4NWfWG17-iCwYO4fkWfgg-zgp_6RoHW8yK60c3U4SiB8KSw5jujdk5mra1yfoAetqbztmTbxtJ-mVBz9MoGfQ24U0F8hxz3-OS1tIU1sWDsbYcW6fTc_W4xxW_OfqjaXkCVM3JSSOE4UY8OeQih9Cutf8mS8hQBQmJiSYupluJPtaR4XsGfv5bVpHZTSKqFLtRHkvFahWKz9hBURphQyPhmSqZ99sZ-Vbk4QWXv5PDGdBwyFHCUqT9HIDY6pmS5zfHStc_BczA_8BD_KHKNGut7q0sTi1hpBQ6R3S92lYEoARcYcFiaeGupAe7qmLd9sx1WQVpuObbWPhoIzvILRHIHBjOK9BmRJuQj8tucrWbvJ9fsugakqLZH6LINjB1PJunEPG3evViOWidc-1MIMaREvigsJG-LEoH5Sqjcx77xEIAJKWigDAP-HS0]--></g></svg>