<svg xmlns="http://www.w3.org/2000/svg" xmlns:xlink="http://www.w3.org/1999/xlink" contentStyleType="text/css" data-diagram-type="ACTIVITY" height="578px" preserveAspectRatio="none" style="width:974px;height:578px;background:#FFFFFF;" version="1.1" viewBox="0 0 974 578" width="974px" zoomAndPan="magnify"><defs/><g><g class="legend" data-source-line="5"><rect fill="none" height="98.0586" rx="7.5" ry="7.5" style="stroke:#000000;stroke-width:1;" width="162.3799" x="10" y="10"/><text fill="#000000" font-family="Verdana" font-size="14" font-weight="bold" lengthAdjust="spacing" textLength="150.8965" x="15" y="29.0752">2. Activity Diagram</text><line style="stroke:#000000;stroke-width:1;" x1="10" x2="172.3799" y1="37.0146" y2="37.0146"/><text fill="#000000" font-family="Verdana" font-size="14" font-weight="bold" lengthAdjust="spacing" textLength="152.3799" x="15" y="56.0898">&#1054;&#1089;&#1090;&#1072;&#1085;&#1086;&#1074;&#1082;&#1072; &#1086;&#1090;&#1095;&#1077;&#1090;&#1086;&#1074;</text><line style="stroke:#000000;stroke-width:1;" x1="10" x2="172.3799" y1="64.0293" y2="64.0293"/><text fill="#000000" font-family="Verdana" font-size="14" lengthAdjust="spacing" textLength="86.5498" x="15" y="83.1045">Version: 0.2</text><text fill="#000000" font-family="Verdana" font-size="14" lengthAdjust="spacing" textLength="110.4482" x="15" y="100.1191">Date: 16/09/25</text></g><rect fill="#FFFFFF" height="21.876" style="stroke:#FFFFFF;stroke-width:1;" width="951.8555" x="10" y="116.3379"/><ellipse cx="127.2852" cy="153.2139" fill="#FFFFFF" rx="10" ry="10" style="stroke:#000000;stroke-width:1;"/><rect fill="#FFFFFF" height="34.584" rx="12.5" ry="12.5" style="stroke:#000000;stroke-width:1;" width="222.5703" x="16" y="183.2139"/><text fill="#000000" font-family="Verdana" font-size="12" lengthAdjust="spacing" textLength="202.5703" x="26" y="205.2783">&#1042;&#1099;&#1073;&#1080;&#1088;&#1072;&#1077;&#1090; &#1082;&#1086;&#1085;&#1092;&#1080;&#1075;&#1091;&#1088;&#1072;&#1094;&#1080;&#1102; &#1086;&#1090;&#1095;&#1077;&#1090;&#1072;</text><rect fill="#FFFFFF" height="34.584" rx="12.5" ry="12.5" style="stroke:#000000;stroke-width:1;" width="206.7676" x="23.9014" y="237.7979"/><text fill="#000000" font-family="Verdana" font-size="12" lengthAdjust="spacing" textLength="186.7676" x="33.9014" y="259.8623">&#1053;&#1072;&#1078;&#1080;&#1084;&#1072;&#1077;&#1090; "&#1054;&#1089;&#1090;&#1072;&#1085;&#1086;&#1074;&#1080;&#1090;&#1100; &#1086;&#1090;&#1095;&#1105;&#1090;"</text><line style="stroke:#000000;stroke-width:1;" x1="10" x2="10" y1="116.3379" y2="571.3018"/><polygon fill="#FFFFFF" points="571.4319,292.3818,663.3044,292.3818,675.3044,304.3818,663.3044,316.3818,571.4319,316.3818,559.4319,304.3818,571.4319,292.3818" style="stroke:#000000;stroke-width:1;"/><text fill="#000000" font-family="Verdana" font-size="11" lengthAdjust="spacing" textLength="91.8726" x="571.4319" y="308.7566">&#1054;&#1090;&#1095;&#1077;&#1090; &#1079;&#1072;&#1087;&#1091;&#1097;&#1077;&#1085;?</text><text fill="#000000" font-family="Verdana" font-size="11" lengthAdjust="spacing" textLength="14.8081" x="544.6238" y="302.0723">&#1044;&#1072;</text><text fill="#000000" font-family="Verdana" font-size="11" lengthAdjust="spacing" textLength="20.2759" x="675.3044" y="302.0723">&#1053;&#1077;&#1090;</text><rect fill="#FFFFFF" height="49.168" rx="12.5" ry="12.5" style="stroke:#000000;stroke-width:1;" width="362.9375" x="254.1191" y="326.3818"/><text fill="#000000" font-family="Verdana" font-size="12" lengthAdjust="spacing" textLength="75.1113" x="264.1191" y="348.4463">&#1048;&#1085;&#1080;&#1094;&#1080;&#1080;&#1088;&#1091;&#1077;&#1090;</text><text fill="#000000" font-family="Verdana" font-size="12" font-weight="bold" lengthAdjust="spacing" textLength="342.9375" x="264.1191" y="363.0303">&#1086;&#1089;&#1090;&#1072;&#1085;&#1086;&#1074;&#1082;&#1091; &#1089;&#1073;&#1086;&#1088;&#1072; &#1076;&#1072;&#1085;&#1085;&#1099;&#1093; &#1095;&#1077;&#1088;&#1077;&#1079; Yandex Direct API</text><rect fill="#FFFFFF" height="34.584" rx="12.5" ry="12.5" style="stroke:#000000;stroke-width:1;" width="374.0352" x="248.5703" y="410.1338"/><text fill="#000000" font-family="Verdana" font-size="12" lengthAdjust="spacing" textLength="354.0352" x="258.5703" y="432.1982">&#1054;&#1073;&#1085;&#1086;&#1074;&#1083;&#1103;&#1077;&#1090; &#1089;&#1090;&#1072;&#1090;&#1091;&#1089; &#1082;&#1086;&#1085;&#1092;&#1080;&#1075;&#1091;&#1088;&#1072;&#1094;&#1080;&#1080; &#1086;&#1090;&#1095;&#1077;&#1090;&#1072; &#1085;&#1072; "&#1053;&#1077; &#1072;&#1082;&#1090;&#1080;&#1074;&#1077;&#1085;"</text><rect fill="#FFFFFF" height="34.584" rx="12.5" ry="12.5" style="stroke:#000000;stroke-width:1;" width="308.5449" x="281.3154" y="464.7178"/><text fill="#000000" font-family="Verdana" font-size="12" lengthAdjust="spacing" textLength="288.5449" x="291.3154" y="486.7822">&#1054;&#1090;&#1086;&#1073;&#1088;&#1072;&#1078;&#1072;&#1077;&#1090; &#1089;&#1086;&#1086;&#1073;&#1097;&#1077;&#1085;&#1080;&#1077; &#1086;&#1073; &#1091;&#1089;&#1087;&#1077;&#1093;&#1077; &#1089;&#1086;&#1090;&#1088;&#1091;&#1076;&#1085;&#1080;&#1082;&#1091;</text><rect fill="#FFFFFF" height="34.584" rx="12.5" ry="12.5" style="stroke:#000000;stroke-width:1;" width="313.0859" x="642.6055" y="326.3818"/><text fill="#000000" font-family="Verdana" font-size="12" lengthAdjust="spacing" textLength="293.0859" x="652.6055" y="348.4463">&#1054;&#1090;&#1086;&#1073;&#1088;&#1072;&#1078;&#1072;&#1077;&#1090; &#1089;&#1086;&#1086;&#1073;&#1097;&#1077;&#1085;&#1080;&#1077; &#1086;&#1073; &#1086;&#1096;&#1080;&#1073;&#1082;&#1077; &#1089;&#1086;&#1090;&#1088;&#1091;&#1076;&#1085;&#1080;&#1082;&#1091;</text><rect fill="#FFFFFF" height="34.584" rx="12.5" ry="12.5" style="stroke:#000000;stroke-width:1;" width="146.1172" x="726.0898" y="395.5498"/><text fill="#000000" font-family="Verdana" font-size="12" lengthAdjust="spacing" textLength="126.1172" x="736.0898" y="417.6143">&#1044;&#1077;&#1083;&#1072;&#1077;&#1090; &#1079;&#1072;&#1087;&#1080;&#1089;&#1100; &#1074; &#1083;&#1086;&#1075;</text><polygon fill="#FFFFFF" points="617.3682,505.3018,629.3682,517.3018,617.3682,529.3018,605.3682,517.3018,617.3682,505.3018" style="stroke:#000000;stroke-width:1;"/><ellipse cx="617.3682" cy="560.3018" fill="none" rx="11" ry="11" style="stroke:#000000;stroke-width:1;"/><ellipse cx="617.3682" cy="560.3018" fill="#FFFFFF" rx="6" ry="6" style="stroke:#000000;stroke-width:1;"/><line style="stroke:#000000;stroke-width:1;" x1="242.5703" x2="242.5703" y1="116.3379" y2="571.3018"/><line style="stroke:#000000;stroke-width:1;" x1="959.6914" x2="959.6914" y1="116.3379" y2="571.3018"/><line style="stroke:#000000;stroke-width:1;" x1="127.2852" x2="127.2852" y1="163.2139" y2="183.2139"/><polygon fill="#000000" points="123.2852,173.2139,127.2852,183.2139,131.2852,173.2139,127.2852,177.2139" style="stroke:#000000;stroke-width:1;"/><line style="stroke:#000000;stroke-width:1;" x1="127.2852" x2="127.2852" y1="217.7979" y2="237.7979"/><polygon fill="#000000" points="123.2852,227.7979,127.2852,237.7979,131.2852,227.7979,127.2852,231.7979" style="stroke:#000000;stroke-width:1;"/><line style="stroke:#000000;stroke-width:1;" x1="435.5879" x2="435.5879" y1="375.5498" y2="410.1338"/><polygon fill="#000000" points="431.5879,400.1338,435.5879,410.1338,439.5879,400.1338,435.5879,404.1338" style="stroke:#000000;stroke-width:1;"/><line style="stroke:#000000;stroke-width:1;" x1="435.5879" x2="435.5879" y1="444.7178" y2="464.7178"/><polygon fill="#000000" points="431.5879,454.7178,435.5879,464.7178,439.5879,454.7178,435.5879,458.7178" style="stroke:#000000;stroke-width:1;"/><line style="stroke:#000000;stroke-width:1;" x1="799.1484" x2="799.1484" y1="360.9658" y2="395.5498"/><polygon fill="#000000" points="795.1484,385.5498,799.1484,395.5498,803.1484,385.5498,799.1484,389.5498" style="stroke:#000000;stroke-width:1;"/><line style="stroke:#000000;stroke-width:1;" x1="559.4319" x2="435.5879" y1="304.3818" y2="304.3818"/><line style="stroke:#000000;stroke-width:1;" x1="435.5879" x2="435.5879" y1="304.3818" y2="326.3818"/><polygon fill="#000000" points="431.5879,316.3818,435.5879,326.3818,439.5879,316.3818,435.5879,320.3818" style="stroke:#000000;stroke-width:1;"/><line style="stroke:#000000;stroke-width:1;" x1="675.3044" x2="799.1484" y1="304.3818" y2="304.3818"/><line style="stroke:#000000;stroke-width:1;" x1="799.1484" x2="799.1484" y1="304.3818" y2="326.3818"/><polygon fill="#000000" points="795.1484,316.3818,799.1484,326.3818,803.1484,316.3818,799.1484,320.3818" style="stroke:#000000;stroke-width:1;"/><line style="stroke:#000000;stroke-width:1;" x1="435.5879" x2="435.5879" y1="499.3018" y2="517.3018"/><line style="stroke:#000000;stroke-width:1;" x1="435.5879" x2="605.3682" y1="517.3018" y2="517.3018"/><polygon fill="#000000" points="595.3682,513.3018,605.3682,517.3018,595.3682,521.3018,599.3682,517.3018" style="stroke:#000000;stroke-width:1;"/><line style="stroke:#000000;stroke-width:1;" x1="799.1484" x2="799.1484" y1="430.1338" y2="517.3018"/><line style="stroke:#000000;stroke-width:1;" x1="799.1484" x2="629.3682" y1="517.3018" y2="517.3018"/><polygon fill="#000000" points="639.3682,513.3018,629.3682,517.3018,639.3682,521.3018,635.3682,517.3018" style="stroke:#000000;stroke-width:1;"/><line style="stroke:#000000;stroke-width:1;" x1="617.3682" x2="617.3682" y1="529.3018" y2="549.3018"/><polygon fill="#000000" points="613.3682,539.3018,617.3682,549.3018,621.3682,539.3018,617.3682,543.3018" style="stroke:#000000;stroke-width:1;"/><line style="stroke:#000000;stroke-width:1;" x1="127.2852" x2="127.2852" y1="272.3818" y2="277.3818"/><line style="stroke:#000000;stroke-width:1;" x1="127.2852" x2="617.3682" y1="277.3818" y2="277.3818"/><line style="stroke:#000000;stroke-width:1;" x1="617.3682" x2="617.3682" y1="277.3818" y2="292.3818"/><polygon fill="#000000" points="613.3682,282.3818,617.3682,292.3818,621.3682,282.3818,617.3682,286.3818" style="stroke:#000000;stroke-width:1;"/><text fill="#000000" font-family="Verdana" font-size="18" lengthAdjust="spacing" textLength="99.123" x="76.7236" y="134.4346">&#1057;&#1086;&#1090;&#1088;&#1091;&#1076;&#1085;&#1080;&#1082;</text><text fill="#000000" font-family="Verdana" font-size="18" lengthAdjust="spacing" textLength="117.1582" x="542.5518" y="134.4346">&#1055;&#1088;&#1080;&#1083;&#1086;&#1078;&#1077;&#1085;&#1080;&#1077;</text><!--SRC=[dL9FQnD15B_FftZDoHniQq31f2Y5Nhnv4WGlOpE92vjDI4Qna4EIjMgfA4eFNbBn6spQ9bqIi_qAxtqZVpExWQwW1-SsRzxlp_kzsUhrTRkZATH7tTUM1XrZTQJLbdrbEePweGuYfKBJDb6JRBT7eMbPHJXxBn_Ljcd_q0Pl0dj41u5kztN7Fzt5sVJmkOnbmWclEUCBNd92dCb4Fl0SPPJAY6UcFmYwKPrsjsk-SA2jgTEz1pkx3tTgzvMpaRjHQiW_FTL8Ohu2VyhBeHfOtSyDrlcRdFACKnb17ce4zOpNyWwTbnAxihp7y-VRZf960Pu2j43dhm9S-MEI591F1LA-ogJIS8v-W3Nb5JeMFFUUvaDF6BJe3XWA6U9h4Dt0n8bhUrmbv1sXuuoJgk_FJNnt5Cwacm9ZEkYBoCMQbMELc6ICOJCt5I4EzxAMKpachpY2p3Kzrr7JlCMk-kRGqlxJ9urRMkU0vsmh-UALSWbuZcNyb_0uBOL7O4WGrPJd10jBr58GOiHAISglVkONioZoXVtC5qysmP6xaXFd6xGSe-AQoXkNE2SsuS0WlwdZglwd5BW_uZR3gF-IoedFW5rjFfRV9dOqTb_YWlm7k2oCHSsWfV0lkptr6m00]--></g></svg>