<svg xmlns="http://www.w3.org/2000/svg" xmlns:xlink="http://www.w3.org/1999/xlink" contentStyleType="text/css" data-diagram-type="ACTIVITY" height="679px" preserveAspectRatio="none" style="width:588px;height:679px;background:#FFFFFF;" version="1.1" viewBox="0 0 588 679" width="588px" zoomAndPan="magnify"><defs/><g><g class="legend" data-source-line="5"><rect fill="none" height="98.0586" rx="7.5" ry="7.5" style="stroke:#000000;stroke-width:1;" width="204.4688" x="10" y="10"/><text fill="#000000" font-family="Verdana" font-size="14" font-weight="bold" lengthAdjust="spacing" textLength="150.8965" x="15" y="29.0752">2. Activity Diagram</text><line style="stroke:#000000;stroke-width:1;" x1="10" x2="214.4688" y1="37.0146" y2="37.0146"/><text fill="#000000" font-family="Verdana" font-size="14" font-weight="bold" lengthAdjust="spacing" textLength="194.4688" x="15" y="56.0898">&#1059;&#1076;&#1072;&#1083;&#1077;&#1085;&#1080;&#1077; &#1087;&#1086;&#1083;&#1100;&#1079;&#1086;&#1074;&#1072;&#1090;&#1077;&#1083;&#1103;</text><line style="stroke:#000000;stroke-width:1;" x1="10" x2="214.4688" y1="64.0293" y2="64.0293"/><text fill="#000000" font-family="Verdana" font-size="14" lengthAdjust="spacing" textLength="86.5498" x="15" y="83.1045">Version: 0.1</text><text fill="#000000" font-family="Verdana" font-size="14" lengthAdjust="spacing" textLength="110.4482" x="15" y="100.1191">Date: 22/09/25</text></g><rect fill="#FFFFFF" height="21.876" style="stroke:#FFFFFF;stroke-width:1;" width="565.145" x="10" y="116.3379"/><ellipse cx="104.3076" cy="153.2139" fill="#FFFFFF" rx="10" ry="10" style="stroke:#000000;stroke-width:1;"/><rect fill="#FFFFFF" height="49.168" rx="12.5" ry="12.5" style="stroke:#000000;stroke-width:1;" width="176.6152" x="16" y="183.2139"/><text fill="#000000" font-family="Verdana" font-size="12" lengthAdjust="spacing" textLength="152.3965" x="26" y="205.2783">&#1048;&#1085;&#1080;&#1094;&#1080;&#1080;&#1088;&#1086;&#1074;&#1072;&#1090;&#1100; &#1091;&#1076;&#1072;&#1083;&#1077;&#1085;&#1080;&#1077;</text><text fill="#000000" font-family="Verdana" font-size="12" lengthAdjust="spacing" textLength="84.8906" x="26" y="219.8623">&#1087;&#1086;&#1083;&#1100;&#1079;&#1086;&#1074;&#1072;&#1090;&#1077;&#1083;&#1103;</text><rect fill="#FFFFFF" height="49.168" rx="12.5" ry="12.5" style="stroke:#000000;stroke-width:1;" width="146.1172" x="31.249" y="581.207"/><text fill="#000000" font-family="Verdana" font-size="12" lengthAdjust="spacing" textLength="121.8984" x="41.249" y="603.2715">&#1042;&#1077;&#1088;&#1085;&#1091;&#1090;&#1100;&#1089;&#1103; &#1082; &#1089;&#1087;&#1080;&#1089;&#1082;&#1091;</text><text fill="#000000" font-family="Verdana" font-size="12" lengthAdjust="spacing" textLength="92.5254" x="41.249" y="617.8555">&#1087;&#1086;&#1083;&#1100;&#1079;&#1086;&#1074;&#1072;&#1090;&#1077;&#1083;&#1077;&#1081;</text><ellipse cx="104.3076" cy="661.375" fill="none" rx="11" ry="11" style="stroke:#000000;stroke-width:1;"/><ellipse cx="104.3076" cy="661.375" fill="#FFFFFF" rx="6" ry="6" style="stroke:#000000;stroke-width:1;"/><line style="stroke:#000000;stroke-width:1;" x1="10" x2="10" y1="116.3379" y2="672.375"/><polygon fill="#FFFFFF" points="306.8994,252.3818,470.6265,252.3818,482.6265,265.7505,470.6265,279.1191,306.8994,279.1191,294.8994,265.7505,306.8994,252.3818" style="stroke:#000000;stroke-width:1;"/><text fill="#000000" font-family="Verdana" font-size="11" lengthAdjust="spacing" textLength="159.8599" x="306.8994" y="263.4409">&#1059;&#1076;&#1072;&#1083;&#1103;&#1077;&#1084;&#1099;&#1081; &#1087;&#1086;&#1083;&#1100;&#1079;&#1086;&#1074;&#1072;&#1090;&#1077;&#1083;&#1100; &#8212;</text><text fill="#000000" font-family="Verdana" font-size="11" lengthAdjust="spacing" textLength="150.7129" x="306.8994" y="276.8096">&#1087;&#1086;&#1089;&#1083;&#1077;&#1076;&#1085;&#1080;&#1081; &#1072;&#1076;&#1084;&#1080;&#1085;&#1080;&#1089;&#1090;&#1088;&#1072;&#1090;&#1086;&#1088;</text><text fill="#000000" font-family="Verdana" font-size="11" lengthAdjust="spacing" textLength="20.2759" x="274.6235" y="263.4409">&#1053;&#1077;&#1090;</text><text fill="#000000" font-family="Verdana" font-size="11" lengthAdjust="spacing" textLength="14.8081" x="482.6265" y="263.4409">&#1044;&#1072;</text><rect fill="#FFFFFF" height="34.584" rx="12.5" ry="12.5" style="stroke:#000000;stroke-width:1;" width="159.0898" x="205.3545" y="289.1191"/><text fill="#000000" font-family="Verdana" font-size="12" lengthAdjust="spacing" textLength="139.0898" x="215.3545" y="311.1836">&#1059;&#1076;&#1072;&#1083;&#1080;&#1090;&#1100; &#1087;&#1086;&#1083;&#1100;&#1079;&#1086;&#1074;&#1072;&#1090;&#1077;&#1083;&#1103;</text><rect fill="#FFFFFF" height="49.168" rx="12.5" ry="12.5" style="stroke:#000000;stroke-width:1;" width="130.3379" x="219.7305" y="358.2871"/><text fill="#000000" font-family="Verdana" font-size="12" lengthAdjust="spacing" textLength="106.1191" x="229.7305" y="380.3516">&#1054;&#1073;&#1085;&#1086;&#1074;&#1080;&#1090;&#1100; &#1089;&#1087;&#1080;&#1089;&#1086;&#1082;</text><text fill="#000000" font-family="Verdana" font-size="12" lengthAdjust="spacing" textLength="92.5254" x="229.7305" y="394.9355">&#1087;&#1086;&#1083;&#1100;&#1079;&#1086;&#1074;&#1072;&#1090;&#1077;&#1083;&#1077;&#1081;</text><rect fill="#FFFFFF" height="34.584" rx="12.5" ry="12.5" style="stroke:#000000;stroke-width:1;" width="152.709" x="208.5449" y="427.4551"/><text fill="#000000" font-family="Verdana" font-size="12" lengthAdjust="spacing" textLength="132.709" x="218.5449" y="449.5195">&#1057;&#1076;&#1077;&#1083;&#1072;&#1090;&#1100; &#1079;&#1072;&#1087;&#1080;&#1089;&#1100; &#1074; &#1083;&#1086;&#1075;</text><rect fill="#FFFFFF" height="49.168" rx="12.5" ry="12.5" style="stroke:#000000;stroke-width:1;" width="164.5684" x="202.6152" y="482.0391"/><text fill="#000000" font-family="Verdana" font-size="12" lengthAdjust="spacing" textLength="124.9336" x="212.6152" y="504.1035">&#1042;&#1099;&#1074;&#1077;&#1089;&#1090;&#1080; &#1089;&#1086;&#1086;&#1073;&#1097;&#1077;&#1085;&#1080;&#1077;</text><text fill="#000000" font-family="Verdana" font-size="12" lengthAdjust="spacing" textLength="144.5684" x="212.6152" y="518.6875">&#1086;&#1073; &#1091;&#1089;&#1087;&#1077;&#1096;&#1085;&#1086;&#1084; &#1091;&#1076;&#1072;&#1083;&#1077;&#1085;&#1080;&#1080;</text><rect fill="#FFFFFF" height="49.168" rx="12.5" ry="12.5" style="stroke:#000000;stroke-width:1;" width="149.1523" x="418.0503" y="289.1191"/><text fill="#000000" font-family="Verdana" font-size="12" lengthAdjust="spacing" textLength="124.9336" x="428.0503" y="311.1836">&#1042;&#1099;&#1074;&#1077;&#1089;&#1090;&#1080; &#1089;&#1086;&#1086;&#1073;&#1097;&#1077;&#1085;&#1080;&#1077;</text><text fill="#000000" font-family="Verdana" font-size="12" lengthAdjust="spacing" textLength="65.9707" x="428.0503" y="325.7676">&#1086;&#1073; &#1086;&#1096;&#1080;&#1073;&#1082;&#1077;</text><rect fill="#FFFFFF" height="34.584" rx="12.5" ry="12.5" style="stroke:#000000;stroke-width:1;" width="152.709" x="416.272" y="372.8711"/><text fill="#000000" font-family="Verdana" font-size="12" lengthAdjust="spacing" textLength="132.709" x="426.272" y="394.9355">&#1057;&#1076;&#1077;&#1083;&#1072;&#1090;&#1100; &#1079;&#1072;&#1087;&#1080;&#1089;&#1100; &#1074; &#1083;&#1086;&#1075;</text><polygon fill="#FFFFFF" points="388.7629,537.207,400.7629,549.207,388.7629,561.207,376.7629,549.207,388.7629,537.207" style="stroke:#000000;stroke-width:1;"/><line style="stroke:#000000;stroke-width:1;" x1="196.6152" x2="196.6152" y1="116.3379" y2="672.375"/><line style="stroke:#000000;stroke-width:1;" x1="572.981" x2="572.981" y1="116.3379" y2="672.375"/><line style="stroke:#000000;stroke-width:1;" x1="104.3076" x2="104.3076" y1="163.2139" y2="183.2139"/><polygon fill="#000000" points="100.3076,173.2139,104.3076,183.2139,108.3076,173.2139,104.3076,177.2139" style="stroke:#000000;stroke-width:1;"/><line style="stroke:#000000;stroke-width:1;" x1="104.3076" x2="104.3076" y1="630.375" y2="650.375"/><polygon fill="#000000" points="100.3076,640.375,104.3076,650.375,108.3076,640.375,104.3076,644.375" style="stroke:#000000;stroke-width:1;"/><line style="stroke:#000000;stroke-width:1;" x1="284.8994" x2="284.8994" y1="323.7031" y2="358.2871"/><polygon fill="#000000" points="280.8994,348.2871,284.8994,358.2871,288.8994,348.2871,284.8994,352.2871" style="stroke:#000000;stroke-width:1;"/><line style="stroke:#000000;stroke-width:1;" x1="284.8994" x2="284.8994" y1="407.4551" y2="427.4551"/><polygon fill="#000000" points="280.8994,417.4551,284.8994,427.4551,288.8994,417.4551,284.8994,421.4551" style="stroke:#000000;stroke-width:1;"/><line style="stroke:#000000;stroke-width:1;" x1="284.8994" x2="284.8994" y1="462.0391" y2="482.0391"/><polygon fill="#000000" points="280.8994,472.0391,284.8994,482.0391,288.8994,472.0391,284.8994,476.0391" style="stroke:#000000;stroke-width:1;"/><line style="stroke:#000000;stroke-width:1;" x1="492.6265" x2="492.6265" y1="338.2871" y2="372.8711"/><polygon fill="#000000" points="488.6265,362.8711,492.6265,372.8711,496.6265,362.8711,492.6265,366.8711" style="stroke:#000000;stroke-width:1;"/><line style="stroke:#000000;stroke-width:1;" x1="294.8994" x2="284.8994" y1="265.7505" y2="265.7505"/><line style="stroke:#000000;stroke-width:1;" x1="284.8994" x2="284.8994" y1="265.7505" y2="289.1191"/><polygon fill="#000000" points="280.8994,279.1191,284.8994,289.1191,288.8994,279.1191,284.8994,283.1191" style="stroke:#000000;stroke-width:1;"/><line style="stroke:#000000;stroke-width:1;" x1="482.6265" x2="492.6265" y1="265.7505" y2="265.7505"/><line style="stroke:#000000;stroke-width:1;" x1="492.6265" x2="492.6265" y1="265.7505" y2="289.1191"/><polygon fill="#000000" points="488.6265,279.1191,492.6265,289.1191,496.6265,279.1191,492.6265,283.1191" style="stroke:#000000;stroke-width:1;"/><line style="stroke:#000000;stroke-width:1;" x1="284.8994" x2="284.8994" y1="531.207" y2="549.207"/><line style="stroke:#000000;stroke-width:1;" x1="284.8994" x2="376.7629" y1="549.207" y2="549.207"/><polygon fill="#000000" points="366.7629,545.207,376.7629,549.207,366.7629,553.207,370.7629,549.207" style="stroke:#000000;stroke-width:1;"/><line style="stroke:#000000;stroke-width:1;" x1="492.6265" x2="492.6265" y1="407.4551" y2="549.207"/><line style="stroke:#000000;stroke-width:1;" x1="492.6265" x2="400.7629" y1="549.207" y2="549.207"/><polygon fill="#000000" points="410.7629,545.207,400.7629,549.207,410.7629,553.207,406.7629,549.207" style="stroke:#000000;stroke-width:1;"/><line style="stroke:#000000;stroke-width:1;" x1="104.3076" x2="104.3076" y1="232.3818" y2="237.3818"/><line style="stroke:#000000;stroke-width:1;" x1="104.3076" x2="388.7629" y1="237.3818" y2="237.3818"/><line style="stroke:#000000;stroke-width:1;" x1="388.7629" x2="388.7629" y1="237.3818" y2="252.3818"/><polygon fill="#000000" points="384.7629,242.3818,388.7629,252.3818,392.7629,242.3818,388.7629,246.3818" style="stroke:#000000;stroke-width:1;"/><line style="stroke:#000000;stroke-width:1;" x1="388.7629" x2="388.7629" y1="561.207" y2="566.207"/><line style="stroke:#000000;stroke-width:1;" x1="388.7629" x2="104.3076" y1="566.207" y2="566.207"/><line style="stroke:#000000;stroke-width:1;" x1="104.3076" x2="104.3076" y1="566.207" y2="581.207"/><polygon fill="#000000" points="100.3076,571.207,104.3076,581.207,108.3076,571.207,104.3076,575.207" style="stroke:#000000;stroke-width:1;"/><text fill="#000000" font-family="Verdana" font-size="18" lengthAdjust="spacing" textLength="142.1807" x="32.2173" y="134.4346">&#1040;&#1076;&#1084;&#1080;&#1085;&#1080;&#1089;&#1090;&#1088;&#1072;&#1090;&#1086;&#1088;</text><text fill="#000000" font-family="Verdana" font-size="18" lengthAdjust="spacing" textLength="76.7021" x="346.447" y="134.4346">&#1057;&#1080;&#1089;&#1090;&#1077;&#1084;&#1072;</text><!--SRC=[bL9DIiD05DxFAPuxkr1hmOLL1A5dSELcr6aDf6bfHw7GHLj150iLwSADWdY1j3OO-tk5DrVm97wPDAA580w4CEzzyxwVcRLgJPRAabpPg5negfULbfuKQ_fSbHLLNUbuGhYgfBmpqfKgkQge1M7jdnpaDkdmL3kNZcvGmP6bcYpRrWPMWk5N7h7F4mvunY47n0kUyyHq-Ht_8VkcWzR4z7wVF5ArkbFnyfJTtBQ5WjGgJxdSLdPtAxSZ8ZcnAY54a-z1CiLuK9YswPYMdJithQQeQrcB5UVvqGAk0Gm1MTARBfch5P77NfhClOZk9QP1PSf-KzZfJf7M4xEc5xNC7N-asUtIPwk_f35jopoot3ZXfvd946x50yqJ1wQJMPfA0WwjbNJTCVgP1nWSjM8yo1SH3qhZLDluFf81Bw2BId5omFdnW6Wp93Jc_9PW7n3145gZh4Ao97CUcDkVEQE0_AsCmDnORTFL2mdZWSgjAxZliv_v9m7Iky5-m6CE_cy4hymf_l7CbdgWfSKp-C5CG7g4LByZ7fkhFoB6QwrKlm00]--></g></svg>