<svg xmlns="http://www.w3.org/2000/svg" xmlns:xlink="http://www.w3.org/1999/xlink" contentStyleType="text/css" data-diagram-type="ACTIVITY" height="549px" preserveAspectRatio="none" style="width:633px;height:549px;background:#FFFFFF;" version="1.1" viewBox="0 0 633 549" width="633px" zoomAndPan="magnify"><defs/><g><g class="legend" data-source-line="5"><rect fill="none" height="98.0586" rx="7.5" ry="7.5" style="stroke:#000000;stroke-width:1;" width="244.4727" x="10" y="10"/><text fill="#000000" font-family="Verdana" font-size="14" font-weight="bold" lengthAdjust="spacing" textLength="150.8965" x="15" y="29.0752">2. Activity Diagram</text><line style="stroke:#000000;stroke-width:1;" x1="10" x2="254.4727" y1="37.0146" y2="37.0146"/><text fill="#000000" font-family="Verdana" font-size="14" font-weight="bold" lengthAdjust="spacing" textLength="234.4727" x="15" y="56.0898">&#1057;&#1073;&#1086;&#1088; &#1076;&#1072;&#1085;&#1085;&#1099;&#1093; &#1087;&#1086; &#1088;&#1072;&#1089;&#1087;&#1080;&#1089;&#1072;&#1085;&#1080;&#1102;</text><line style="stroke:#000000;stroke-width:1;" x1="10" x2="254.4727" y1="64.0293" y2="64.0293"/><text fill="#000000" font-family="Verdana" font-size="14" lengthAdjust="spacing" textLength="86.5498" x="15" y="83.1045">Version: 0.2</text><text fill="#000000" font-family="Verdana" font-size="14" lengthAdjust="spacing" textLength="110.4482" x="15" y="100.1191">Date: 22/09/25</text></g><rect fill="#FFFFFF" height="21.876" style="stroke:#FFFFFF;stroke-width:1;" width="610.46" x="10" y="116.3379"/><ellipse cx="208.6138" cy="153.2139" fill="#FFFFFF" rx="10" ry="10" style="stroke:#000000;stroke-width:1;"/><rect fill="#FFFFFF" height="34.584" rx="12.5" ry="12.5" style="stroke:#000000;stroke-width:1;" width="203.1465" x="107.0405" y="183.2139"/><text fill="#000000" font-family="Verdana" font-size="12" lengthAdjust="spacing" textLength="183.1465" x="117.0405" y="205.2783">&#1057;&#1088;&#1072;&#1073;&#1086;&#1090;&#1072;&#1083; &#1090;&#1072;&#1081;&#1084;&#1077;&#1088; &#1088;&#1072;&#1089;&#1087;&#1080;&#1089;&#1072;&#1085;&#1080;&#1103;</text><rect fill="#FFFFFF" height="34.584" rx="12.5" ry="12.5" style="stroke:#000000;stroke-width:1;" width="254.4453" x="81.3911" y="237.7979"/><text fill="#000000" font-family="Verdana" font-size="12" lengthAdjust="spacing" textLength="234.4453" x="91.3911" y="259.8623">&#1048;&#1085;&#1080;&#1094;&#1080;&#1080;&#1088;&#1086;&#1074;&#1072;&#1090;&#1100; &#1087;&#1088;&#1086;&#1094;&#1077;&#1089;&#1089; &#1089;&#1073;&#1086;&#1088;&#1072; &#1076;&#1072;&#1085;&#1085;&#1099;&#1093;</text><polygon fill="#FFFFFF" points="127.0618,346.9658,290.1658,346.9658,302.1658,358.9658,290.1658,370.9658,127.0618,370.9658,115.0618,358.9658,127.0618,346.9658" style="stroke:#000000;stroke-width:1;"/><text fill="#000000" font-family="Verdana" font-size="11" lengthAdjust="spacing" textLength="163.104" x="127.0618" y="363.3406">&#1044;&#1072;&#1085;&#1085;&#1099;&#1077; &#1087;&#1086;&#1083;&#1091;&#1095;&#1077;&#1085;&#1099; &#1091;&#1089;&#1087;&#1077;&#1096;&#1085;&#1086;?</text><text fill="#000000" font-family="Verdana" font-size="11" lengthAdjust="spacing" textLength="14.8081" x="100.2537" y="356.6563">&#1044;&#1072;</text><text fill="#000000" font-family="Verdana" font-size="11" lengthAdjust="spacing" textLength="20.2759" x="302.1658" y="356.6563">&#1053;&#1077;&#1090;</text><rect fill="#FFFFFF" height="34.584" rx="12.5" ry="12.5" style="stroke:#000000;stroke-width:1;" width="169.1855" x="16" y="380.9658"/><text fill="#000000" font-family="Verdana" font-size="12" lengthAdjust="spacing" textLength="149.1855" x="26" y="403.0303">&#1057;&#1086;&#1093;&#1088;&#1072;&#1085;&#1080;&#1090;&#1100; &#1076;&#1072;&#1085;&#1085;&#1099;&#1077; &#1074; &#1041;&#1044;</text><rect fill="#FFFFFF" height="34.584" rx="12.5" ry="12.5" style="stroke:#000000;stroke-width:1;" width="152.709" x="24.2383" y="435.5498"/><text fill="#000000" font-family="Verdana" font-size="12" lengthAdjust="spacing" textLength="132.709" x="34.2383" y="457.6143">&#1057;&#1076;&#1077;&#1083;&#1072;&#1090;&#1100; &#1079;&#1072;&#1087;&#1080;&#1089;&#1100; &#1074; &#1083;&#1086;&#1075;</text><rect fill="#FFFFFF" height="34.584" rx="12.5" ry="12.5" style="stroke:#000000;stroke-width:1;" width="222.8984" x="205.1855" y="380.9658"/><text fill="#000000" font-family="Verdana" font-size="12" lengthAdjust="spacing" textLength="202.8984" x="215.1855" y="403.0303">&#1057;&#1076;&#1077;&#1083;&#1072;&#1090;&#1100; &#1079;&#1072;&#1087;&#1080;&#1089;&#1100; &#1086;&#1073; &#1086;&#1096;&#1080;&#1073;&#1082;&#1077; &#1074; &#1083;&#1086;&#1075;</text><polygon fill="#FFFFFF" points="208.6138,476.1338,220.6138,488.1338,208.6138,500.1338,196.6138,488.1338,208.6138,476.1338" style="stroke:#000000;stroke-width:1;"/><ellipse cx="208.6138" cy="531.1338" fill="none" rx="11" ry="11" style="stroke:#000000;stroke-width:1;"/><ellipse cx="208.6138" cy="531.1338" fill="#FFFFFF" rx="6" ry="6" style="stroke:#000000;stroke-width:1;"/><line style="stroke:#000000;stroke-width:1;" x1="10" x2="10" y1="116.3379" y2="542.1338"/><rect fill="#FFFFFF" height="34.584" rx="12.5" ry="12.5" style="stroke:#000000;stroke-width:1;" width="156.4355" x="447.9722" y="292.3818"/><text fill="#000000" font-family="Verdana" font-size="12" lengthAdjust="spacing" textLength="136.4355" x="457.9722" y="314.4463">&#1055;&#1088;&#1077;&#1076;&#1086;&#1089;&#1090;&#1072;&#1074;&#1080;&#1090;&#1100; &#1076;&#1072;&#1085;&#1085;&#1099;&#1077;</text><line style="stroke:#000000;stroke-width:1;" x1="432.084" x2="432.084" y1="116.3379" y2="542.1338"/><line style="stroke:#000000;stroke-width:1;" x1="618.2959" x2="618.2959" y1="116.3379" y2="542.1338"/><line style="stroke:#000000;stroke-width:1;" x1="208.6138" x2="208.6138" y1="163.2139" y2="183.2139"/><polygon fill="#000000" points="204.6138,173.2139,208.6138,183.2139,212.6138,173.2139,208.6138,177.2139" style="stroke:#000000;stroke-width:1;"/><line style="stroke:#000000;stroke-width:1;" x1="208.6138" x2="208.6138" y1="217.7979" y2="237.7979"/><polygon fill="#000000" points="204.6138,227.7979,208.6138,237.7979,212.6138,227.7979,208.6138,231.7979" style="stroke:#000000;stroke-width:1;"/><line style="stroke:#000000;stroke-width:1;" x1="100.5928" x2="100.5928" y1="415.5498" y2="435.5498"/><polygon fill="#000000" points="96.5928,425.5498,100.5928,435.5498,104.5928,425.5498,100.5928,429.5498" style="stroke:#000000;stroke-width:1;"/><line style="stroke:#000000;stroke-width:1;" x1="115.0618" x2="100.5928" y1="358.9658" y2="358.9658"/><line style="stroke:#000000;stroke-width:1;" x1="100.5928" x2="100.5928" y1="358.9658" y2="380.9658"/><polygon fill="#000000" points="96.5928,370.9658,100.5928,380.9658,104.5928,370.9658,100.5928,374.9658" style="stroke:#000000;stroke-width:1;"/><line style="stroke:#000000;stroke-width:1;" x1="302.1658" x2="316.6348" y1="358.9658" y2="358.9658"/><line style="stroke:#000000;stroke-width:1;" x1="316.6348" x2="316.6348" y1="358.9658" y2="380.9658"/><polygon fill="#000000" points="312.6348,370.9658,316.6348,380.9658,320.6348,370.9658,316.6348,374.9658" style="stroke:#000000;stroke-width:1;"/><line style="stroke:#000000;stroke-width:1;" x1="100.5928" x2="100.5928" y1="470.1338" y2="488.1338"/><line style="stroke:#000000;stroke-width:1;" x1="100.5928" x2="196.6138" y1="488.1338" y2="488.1338"/><polygon fill="#000000" points="186.6138,484.1338,196.6138,488.1338,186.6138,492.1338,190.6138,488.1338" style="stroke:#000000;stroke-width:1;"/><line style="stroke:#000000;stroke-width:1;" x1="316.6348" x2="316.6348" y1="415.5498" y2="488.1338"/><line style="stroke:#000000;stroke-width:1;" x1="316.6348" x2="220.6138" y1="488.1338" y2="488.1338"/><polygon fill="#000000" points="230.6138,484.1338,220.6138,488.1338,230.6138,492.1338,226.6138,488.1338" style="stroke:#000000;stroke-width:1;"/><line style="stroke:#000000;stroke-width:1;" x1="208.6138" x2="208.6138" y1="500.1338" y2="520.1338"/><polygon fill="#000000" points="204.6138,510.1338,208.6138,520.1338,212.6138,510.1338,208.6138,514.1338" style="stroke:#000000;stroke-width:1;"/><line style="stroke:#000000;stroke-width:1;" x1="208.6138" x2="208.6138" y1="272.3818" y2="277.3818"/><line style="stroke:#000000;stroke-width:1;" x1="208.6138" x2="526.1899" y1="277.3818" y2="277.3818"/><line style="stroke:#000000;stroke-width:1;" x1="526.1899" x2="526.1899" y1="277.3818" y2="292.3818"/><polygon fill="#000000" points="522.1899,282.3818,526.1899,292.3818,530.1899,282.3818,526.1899,286.3818" style="stroke:#000000;stroke-width:1;"/><line style="stroke:#000000;stroke-width:1;" x1="526.1899" x2="526.1899" y1="326.9658" y2="331.9658"/><line style="stroke:#000000;stroke-width:1;" x1="526.1899" x2="208.6138" y1="331.9658" y2="331.9658"/><line style="stroke:#000000;stroke-width:1;" x1="208.6138" x2="208.6138" y1="331.9658" y2="346.9658"/><polygon fill="#000000" points="204.6138,336.9658,208.6138,346.9658,212.6138,336.9658,208.6138,340.9658" style="stroke:#000000;stroke-width:1;"/><text fill="#000000" font-family="Verdana" font-size="18" lengthAdjust="spacing" textLength="76.7021" x="182.6909" y="134.4346">&#1057;&#1080;&#1089;&#1090;&#1077;&#1084;&#1072;</text><text fill="#000000" font-family="Verdana" font-size="18" lengthAdjust="spacing" textLength="176.2119" x="437.084" y="134.4346">&#1071;&#1085;&#1076;&#1077;&#1082;&#1089; &#1044;&#1080;&#1088;&#1077;&#1082;&#1090; API</text><!--SRC=[ZL4zJm914EttLmoT5AAvn48m6X8QEolxLHUyv3Z8iPgOKC0PFnADneJ2nXX-WO1SF4NElp3xZtoxe964mYrcTtRVlFTcDjUCPAqkAP1dZHDDhRhICfGYfuzLNL4pa7ueHA1gAZmYtMXIeAfQ4DRMmRPNeFAXzazzVKOLNzOYMNTFgrW_6Expa3FJ8HxpWASyDJVcWlYBCp8T7fWkZYcYVKlDtMBzlefQVYCiqdh1SnSLgLMHF6zjVNFDsn3MrCoR46qeWSZ4dF0d3zgYfMKqirhaljLoHcBi4tBREt09d2tnSL-Q5pwwz99Jn0vdF08qDhTemAPuI23P9HIwBdcmq6V9sdf1DeQf3-2uvtXi4bDvRxSzbtbsbsDGT9sr4M1EvfUCazAI7csrNwKLyFxYt71vOixD5M2u8XnjUucv1YRRoHC-DvmLvHt5V4YGlt23cYwH9nuHFt2lj51X6vlypEGDQ3T5cm0zWO_N6Lu5BGN59vY8y_zao7Y80DCfXlinT_2NCppogmB_t6X-0m00]--></g></svg>