<svg xmlns="http://www.w3.org/2000/svg" xmlns:xlink="http://www.w3.org/1999/xlink" contentStyleType="text/css" data-diagram-type="ACTIVITY" height="557px" preserveAspectRatio="none" style="width:786px;height:557px;background:#FFFFFF;" version="1.1" viewBox="0 0 786 557" width="786px" zoomAndPan="magnify"><defs/><g><g class="legend" data-source-line="5"><rect fill="none" height="98.0586" rx="7.5" ry="7.5" style="stroke:#000000;stroke-width:1;" width="267.5986" x="10" y="10"/><text fill="#000000" font-family="Verdana" font-size="14" font-weight="bold" lengthAdjust="spacing" textLength="150.8965" x="15" y="29.0752">2. Activity Diagram</text><line style="stroke:#000000;stroke-width:1;" x1="10" x2="277.5986" y1="37.0146" y2="37.0146"/><text fill="#000000" font-family="Verdana" font-size="14" font-weight="bold" lengthAdjust="spacing" textLength="257.5986" x="15" y="56.0898">&#1057;&#1086;&#1079;&#1076;&#1072;&#1085;&#1080;&#1077; &#1082;&#1086;&#1085;&#1092;&#1080;&#1075;&#1091;&#1088;&#1072;&#1094;&#1080;&#1080; &#1086;&#1090;&#1095;&#1077;&#1090;&#1072;</text><line style="stroke:#000000;stroke-width:1;" x1="10" x2="277.5986" y1="64.0293" y2="64.0293"/><text fill="#000000" font-family="Verdana" font-size="14" lengthAdjust="spacing" textLength="86.5498" x="15" y="83.1045">Version: 0.2</text><text fill="#000000" font-family="Verdana" font-size="14" lengthAdjust="spacing" textLength="110.4482" x="15" y="100.1191">Date: 16/09/25</text></g><ellipse cx="398.2903" cy="124.0586" fill="#FFFFFF" rx="10" ry="10" style="stroke:#000000;stroke-width:1;"/><rect fill="#FFFFFF" height="365.3506" style="stroke:#000000;stroke-width:1;" width="774.5806" x="6" y="144.0586"/><path d="M93.0957,144.0586 L93.0957,154.0732 L83.0957,164.0732 L6,164.0732" fill="none" style="stroke:#000000;stroke-width:1;"/><text fill="#000000" font-family="Verdana" font-size="14" lengthAdjust="spacing" textLength="77.0957" x="9" y="159.1338">&#1057;&#1086;&#1090;&#1088;&#1091;&#1076;&#1085;&#1080;&#1082;</text><rect fill="#FFFFFF" height="34.584" rx="12.5" ry="12.5" style="stroke:#000000;stroke-width:1;" width="265.2441" x="265.6682" y="181.0732"/><text fill="#000000" font-family="Verdana" font-size="12" lengthAdjust="spacing" textLength="245.2441" x="275.6682" y="203.1377">&#1048;&#1085;&#1080;&#1094;&#1080;&#1080;&#1088;&#1086;&#1074;&#1072;&#1090;&#1100; &#1089;&#1086;&#1079;&#1076;&#1072;&#1085;&#1080;&#1077; &#1082;&#1086;&#1085;&#1092;&#1080;&#1075;&#1091;&#1088;&#1072;&#1094;&#1080;&#1080;</text><rect fill="#000000" height="6" rx="2.5" ry="2.5" style="stroke:#000000;stroke-width:1;" width="754.5806" x="16" y="235.6572"/><rect fill="#FFFFFF" height="34.584" rx="12.5" ry="12.5" style="stroke:#000000;stroke-width:1;" width="195.459" x="62.7959" y="293.6572"/><text fill="#000000" font-family="Verdana" font-size="12" lengthAdjust="spacing" textLength="175.459" x="72.7959" y="315.7217">&#1042;&#1099;&#1073;&#1088;&#1072;&#1090;&#1100; &#1082;&#1086;&#1084;&#1087;&#1072;&#1085;&#1080;&#1102;-&#1082;&#1083;&#1080;&#1077;&#1085;&#1090;&#1072;</text><rect fill="#FFFFFF" height="34.584" rx="12.5" ry="12.5" style="stroke:#000000;stroke-width:1;" width="265.0508" x="28" y="350.2412"/><text fill="#000000" font-family="Verdana" font-size="12" lengthAdjust="spacing" textLength="245.0508" x="38" y="372.3057">&#1042;&#1099;&#1073;&#1088;&#1072;&#1090;&#1100; &#1088;&#1077;&#1082;&#1083;&#1072;&#1084;&#1085;&#1099;&#1077; &#1082;&#1072;&#1084;&#1087;&#1072;&#1085;&#1080;&#1080; &#1082;&#1083;&#1080;&#1077;&#1085;&#1090;&#1072;</text><polygon fill="#FFFFFF" points="463.208,261.6572,690.894,261.6572,702.894,273.6572,690.894,285.6572,463.208,285.6572,451.208,273.6572,463.208,261.6572" style="stroke:#000000;stroke-width:1;"/><text fill="#000000" font-family="Verdana" font-size="11" lengthAdjust="spacing" textLength="227.686" x="463.208" y="278.032">&#1057;&#1074;&#1103;&#1079;&#1072;&#1090;&#1100; &#1089; &#1082;&#1086;&#1085;&#1092;&#1080;&#1075;&#1091;&#1088;&#1072;&#1094;&#1080;&#1102; &#1089; &#1076;&#1072;&#1096;&#1073;&#1086;&#1088;&#1076;&#1086;&#1084;?</text><text fill="#000000" font-family="Verdana" font-size="11" lengthAdjust="spacing" textLength="14.8081" x="436.3999" y="271.3477">&#1044;&#1072;</text><text fill="#000000" font-family="Verdana" font-size="11" lengthAdjust="spacing" textLength="20.2759" x="702.894" y="271.3477">&#1053;&#1077;&#1090;</text><rect fill="#FFFFFF" height="34.584" rx="12.5" ry="12.5" style="stroke:#000000;stroke-width:1;" width="220.3145" x="331.0508" y="295.6572"/><text fill="#000000" font-family="Verdana" font-size="12" lengthAdjust="spacing" textLength="200.3145" x="341.0508" y="317.7217">&#1055;&#1088;&#1080;&#1082;&#1088;&#1077;&#1087;&#1080;&#1090;&#1100; &#1089;&#1089;&#1099;&#1083;&#1082;&#1091; &#1085;&#1072; &#1076;&#1072;&#1096;&#1073;&#1086;&#1088;&#1076;</text><rect fill="#FFFFFF" height="34.584" rx="12.5" ry="12.5" style="stroke:#000000;stroke-width:1;" width="69.0137" x="406.7012" y="352.2412"/><text fill="#000000" font-family="Verdana" font-size="12" lengthAdjust="spacing" textLength="49.0137" x="416.7012" y="374.3057">&#1057;&#1074;&#1103;&#1079;&#1072;&#1090;&#1100;</text><rect fill="#FFFFFF" height="34.584" rx="12.5" ry="12.5" style="stroke:#000000;stroke-width:1;" width="91.373" x="667.2075" y="295.6572"/><text fill="#000000" font-family="Verdana" font-size="12" lengthAdjust="spacing" textLength="71.373" x="677.2075" y="317.7217">&#1055;&#1088;&#1086;&#1087;&#1091;&#1089;&#1090;&#1080;&#1090;&#1100;</text><polygon fill="#FFFFFF" points="577.051,392.8252,589.051,404.8252,577.051,416.8252,565.051,404.8252,577.051,392.8252" style="stroke:#000000;stroke-width:1;"/><rect fill="#000000" height="6" rx="2.5" ry="2.5" style="stroke:#000000;stroke-width:1;" width="754.5806" x="16" y="436.8252"/><rect fill="#FFFFFF" height="34.584" rx="12.5" ry="12.5" style="stroke:#000000;stroke-width:1;" width="182.5215" x="307.0295" y="462.8252"/><text fill="#000000" font-family="Verdana" font-size="12" lengthAdjust="spacing" textLength="162.5215" x="317.0295" y="484.8896">&#1057;&#1086;&#1093;&#1088;&#1072;&#1085;&#1080;&#1090;&#1100; &#1082;&#1086;&#1085;&#1092;&#1080;&#1075;&#1091;&#1088;&#1072;&#1094;&#1080;&#1102;</text><ellipse cx="398.2903" cy="540.4092" fill="none" rx="11" ry="11" style="stroke:#000000;stroke-width:1;"/><ellipse cx="398.2903" cy="540.4092" fill="#FFFFFF" rx="6" ry="6" style="stroke:#000000;stroke-width:1;"/><line style="stroke:#000000;stroke-width:1;" x1="160.5254" x2="160.5254" y1="328.2412" y2="350.2412"/><polygon fill="#000000" points="156.5254,340.2412,160.5254,350.2412,164.5254,340.2412,160.5254,344.2412" style="stroke:#000000;stroke-width:1;"/><line style="stroke:#000000;stroke-width:1;" x1="441.208" x2="441.208" y1="330.2412" y2="352.2412"/><polygon fill="#000000" points="437.208,342.2412,441.208,352.2412,445.208,342.2412,441.208,346.2412" style="stroke:#000000;stroke-width:1;"/><line style="stroke:#000000;stroke-width:1;" x1="451.208" x2="441.208" y1="273.6572" y2="273.6572"/><line style="stroke:#000000;stroke-width:1;" x1="441.208" x2="441.208" y1="273.6572" y2="295.6572"/><polygon fill="#000000" points="437.208,285.6572,441.208,295.6572,445.208,285.6572,441.208,289.6572" style="stroke:#000000;stroke-width:1;"/><line style="stroke:#000000;stroke-width:1;" x1="702.894" x2="712.894" y1="273.6572" y2="273.6572"/><line style="stroke:#000000;stroke-width:1;" x1="712.894" x2="712.894" y1="273.6572" y2="295.6572"/><polygon fill="#000000" points="708.894,285.6572,712.894,295.6572,716.894,285.6572,712.894,289.6572" style="stroke:#000000;stroke-width:1;"/><line style="stroke:#000000;stroke-width:1;" x1="441.208" x2="441.208" y1="386.8252" y2="404.8252"/><line style="stroke:#000000;stroke-width:1;" x1="441.208" x2="565.051" y1="404.8252" y2="404.8252"/><polygon fill="#000000" points="555.051,400.8252,565.051,404.8252,555.051,408.8252,559.051,404.8252" style="stroke:#000000;stroke-width:1;"/><line style="stroke:#000000;stroke-width:1;" x1="712.894" x2="712.894" y1="330.2412" y2="404.8252"/><line style="stroke:#000000;stroke-width:1;" x1="712.894" x2="589.051" y1="404.8252" y2="404.8252"/><polygon fill="#000000" points="599.051,400.8252,589.051,404.8252,599.051,408.8252,595.051,404.8252" style="stroke:#000000;stroke-width:1;"/><line style="stroke:#000000;stroke-width:1;" x1="160.5254" x2="160.5254" y1="241.6572" y2="293.6572"/><polygon fill="#000000" points="156.5254,283.6572,160.5254,293.6572,164.5254,283.6572,160.5254,287.6572" style="stroke:#000000;stroke-width:1;"/><line style="stroke:#000000;stroke-width:1;" x1="577.051" x2="577.051" y1="241.6572" y2="261.6572"/><polygon fill="#000000" points="573.051,251.6572,577.051,261.6572,581.051,251.6572,577.051,255.6572" style="stroke:#000000;stroke-width:1;"/><line style="stroke:#000000;stroke-width:1;" x1="160.5254" x2="160.5254" y1="384.8252" y2="436.8252"/><polygon fill="#000000" points="156.5254,426.8252,160.5254,436.8252,164.5254,426.8252,160.5254,430.8252" style="stroke:#000000;stroke-width:1;"/><line style="stroke:#000000;stroke-width:1;" x1="577.051" x2="577.051" y1="416.8252" y2="436.8252"/><polygon fill="#000000" points="573.051,426.8252,577.051,436.8252,581.051,426.8252,577.051,430.8252" style="stroke:#000000;stroke-width:1;"/><line style="stroke:#000000;stroke-width:1;" x1="398.2903" x2="398.2903" y1="215.6572" y2="235.6572"/><polygon fill="#000000" points="394.2903,225.6572,398.2903,235.6572,402.2903,225.6572,398.2903,229.6572" style="stroke:#000000;stroke-width:1;"/><line style="stroke:#000000;stroke-width:1;" x1="398.2903" x2="398.2903" y1="442.8252" y2="462.8252"/><polygon fill="#000000" points="394.2903,452.8252,398.2903,462.8252,402.2903,452.8252,398.2903,456.8252" style="stroke:#000000;stroke-width:1;"/><line style="stroke:#000000;stroke-width:1;" x1="398.2903" x2="398.2903" y1="134.0586" y2="181.0732"/><polygon fill="#000000" points="394.2903,171.0732,398.2903,181.0732,402.2903,171.0732,398.2903,175.0732" style="stroke:#000000;stroke-width:1;"/><line style="stroke:#000000;stroke-width:1;" x1="398.2903" x2="398.2903" y1="497.4092" y2="529.4092"/><polygon fill="#000000" points="394.2903,519.4092,398.2903,529.4092,402.2903,519.4092,398.2903,523.4092" style="stroke:#000000;stroke-width:1;"/><!--SRC=[ZPBVIXj15CRlvocEtbWl_DD02oPY4No6ta_h92vkTfVDL10fnAJ_8CL2wKLlIl4DDj5WY6Rp2kUyaT_CkeQ4BdGMbZCpv_pcEz_CMfBgLbjJgC_Z3vOwRMDrfDMQFJ5jGqceWqYfqBHCT4msJYWqJQi8O__TGMsR3j_Ru2omvtGKw5Qgstvh2wFCuMlE-OvlEUCPJtXCFCN2J3vXSYDzwN8cNn1FY7FfoLSUIu-pPSnRatQ2EAhJxdRDBnnfQ-hqylNExjvExPLosWg9IdMiJgrI2Vw1HH6jEmKWTwKF5Kx3T9qkbEVK-RTRAGH0IiuZoEd9TvBB_vJTA4ZDE3trGO7zAGCU-YG7yxKFF2zWShM5XNj71H3DDYeB4OnzReRo6RQyZcp1ShQji3PAEQHRxl8sAbM1uIQWZRq_WwKhQAWLKCa9clG2dexa1mmgtQhmHwxy7coKRpm4leiONhpP93om2A1Vd6q-enTI_o8JD-KDc8DJd89lW6wdqYTqdws06__WBEbS99YmOt3u7zTgrV4vpz789RoOh1H7nq5JFKN5pQloj5m-UqzdJvghRC6p-UWUQvoeHm00]--></g></svg>